<mxfile host="app.diagrams.net" agent="Mozilla/5.0 (X11; Linux x86_64; rv:136.0) Gecko/20100101 Firefox/136.0" version="26.2.13">
  <diagram name="Page-1" id="zRZe9zVDezlclE6qM3xR">
    <mxGraphModel dx="3418" dy="2498" grid="1" gridSize="10" guides="1" tooltips="1" connect="1" arrows="1" fold="1" page="1" pageScale="1" pageWidth="1700" pageHeight="1100" math="0" shadow="0">
      <root>
        <mxCell id="0" />
        <mxCell id="1" parent="0" />
        <mxCell id="In79gU82OMaWVXC0pcwa-130" style="edgeStyle=orthogonalEdgeStyle;rounded=0;orthogonalLoop=1;jettySize=auto;html=1;entryX=0.5;entryY=0;entryDx=0;entryDy=0;fillColor=#60a917;strokeColor=#2D7600;" edge="1" parent="1" source="oB9wCm33StctVlyddSk8-5" target="oB9wCm33StctVlyddSk8-76">
          <mxGeometry relative="1" as="geometry" />
        </mxCell>
        <mxCell id="In79gU82OMaWVXC0pcwa-193" style="edgeStyle=orthogonalEdgeStyle;rounded=0;orthogonalLoop=1;jettySize=auto;html=1;entryX=1;entryY=0.5;entryDx=0;entryDy=0;" edge="1" parent="1" source="oB9wCm33StctVlyddSk8-5" target="oB9wCm33StctVlyddSk8-15">
          <mxGeometry relative="1" as="geometry" />
        </mxCell>
        <mxCell id="oB9wCm33StctVlyddSk8-5" value="" style="rounded=0;whiteSpace=wrap;html=1;labelBackgroundColor=none;fillColor=#182E3E;strokeColor=#FFFFFF;fontColor=#FFFFFF;" parent="1" vertex="1">
          <mxGeometry x="20" y="1000" width="310" height="220" as="geometry" />
        </mxCell>
        <mxCell id="oB9wCm33StctVlyddSk8-6" value="User Service" style="text;html=1;align=center;verticalAlign=middle;whiteSpace=wrap;rounded=0;labelBackgroundColor=none;fontColor=#FFFFFF;" parent="1" vertex="1">
          <mxGeometry x="21" y="1000" width="160" height="30" as="geometry" />
        </mxCell>
        <mxCell id="oB9wCm33StctVlyddSk8-9" value="" style="shape=cylinder3;whiteSpace=wrap;html=1;boundedLbl=1;backgroundOutline=1;size=15;labelBackgroundColor=none;fillColor=#182E3E;strokeColor=#FFFFFF;fontColor=#FFFFFF;" parent="1" vertex="1">
          <mxGeometry x="46" y="1062" width="50" height="70" as="geometry" />
        </mxCell>
        <mxCell id="oB9wCm33StctVlyddSk8-10" value="&lt;div&gt;&lt;font style=&quot;font-size: 8px;&quot;&gt;User&lt;/font&gt;&lt;/div&gt;" style="text;html=1;align=center;verticalAlign=middle;whiteSpace=wrap;rounded=0;labelBackgroundColor=none;fontColor=#FFFFFF;" parent="1" vertex="1">
          <mxGeometry x="41" y="1092" width="60" height="30" as="geometry" />
        </mxCell>
        <mxCell id="oB9wCm33StctVlyddSk8-16" style="edgeStyle=orthogonalEdgeStyle;rounded=0;orthogonalLoop=1;jettySize=auto;html=1;entryX=0;entryY=0.5;entryDx=0;entryDy=0;labelBackgroundColor=none;strokeColor=#23445D;fontColor=default;" parent="1" source="oB9wCm33StctVlyddSk8-14" target="oB9wCm33StctVlyddSk8-15" edge="1">
          <mxGeometry relative="1" as="geometry" />
        </mxCell>
        <mxCell id="In79gU82OMaWVXC0pcwa-196" style="edgeStyle=orthogonalEdgeStyle;rounded=0;orthogonalLoop=1;jettySize=auto;html=1;" edge="1" parent="1" source="oB9wCm33StctVlyddSk8-14">
          <mxGeometry relative="1" as="geometry">
            <mxPoint x="-490" y="1110" as="targetPoint" />
          </mxGeometry>
        </mxCell>
        <mxCell id="oB9wCm33StctVlyddSk8-14" value="ingress-nginx" style="rounded=1;whiteSpace=wrap;html=1;labelBackgroundColor=none;fillColor=#182E3E;strokeColor=#FFFFFF;fontColor=#FFFFFF;" parent="1" vertex="1">
          <mxGeometry x="-430" y="1080" width="120" height="60" as="geometry" />
        </mxCell>
        <mxCell id="In79gU82OMaWVXC0pcwa-15" style="edgeStyle=orthogonalEdgeStyle;rounded=0;orthogonalLoop=1;jettySize=auto;html=1;exitX=1;exitY=0.5;exitDx=0;exitDy=0;entryX=0;entryY=0.5;entryDx=0;entryDy=0;" edge="1" parent="1" source="oB9wCm33StctVlyddSk8-15" target="oB9wCm33StctVlyddSk8-5">
          <mxGeometry relative="1" as="geometry" />
        </mxCell>
        <mxCell id="In79gU82OMaWVXC0pcwa-23" style="edgeStyle=orthogonalEdgeStyle;rounded=0;orthogonalLoop=1;jettySize=auto;html=1;exitX=1;exitY=0.5;exitDx=0;exitDy=0;entryX=0;entryY=0.5;entryDx=0;entryDy=0;" edge="1" parent="1" source="oB9wCm33StctVlyddSk8-15" target="oB9wCm33StctVlyddSk8-76">
          <mxGeometry relative="1" as="geometry" />
        </mxCell>
        <mxCell id="In79gU82OMaWVXC0pcwa-76" style="edgeStyle=orthogonalEdgeStyle;rounded=0;orthogonalLoop=1;jettySize=auto;html=1;exitX=1;exitY=0.5;exitDx=0;exitDy=0;entryX=0;entryY=0.5;entryDx=0;entryDy=0;" edge="1" parent="1" source="oB9wCm33StctVlyddSk8-15" target="oB9wCm33StctVlyddSk8-40">
          <mxGeometry relative="1" as="geometry" />
        </mxCell>
        <mxCell id="In79gU82OMaWVXC0pcwa-84" style="edgeStyle=orthogonalEdgeStyle;rounded=0;orthogonalLoop=1;jettySize=auto;html=1;entryX=0;entryY=0.5;entryDx=0;entryDy=0;" edge="1" parent="1" source="oB9wCm33StctVlyddSk8-15" target="oB9wCm33StctVlyddSk8-103">
          <mxGeometry relative="1" as="geometry" />
        </mxCell>
        <mxCell id="In79gU82OMaWVXC0pcwa-116" style="edgeStyle=orthogonalEdgeStyle;rounded=0;orthogonalLoop=1;jettySize=auto;html=1;entryX=1;entryY=0.5;entryDx=0;entryDy=0;" edge="1" parent="1" source="oB9wCm33StctVlyddSk8-15" target="oB9wCm33StctVlyddSk8-184">
          <mxGeometry relative="1" as="geometry">
            <Array as="points">
              <mxPoint x="-180" y="2350" />
              <mxPoint x="1470" y="2350" />
              <mxPoint x="1470" y="1140" />
            </Array>
          </mxGeometry>
        </mxCell>
        <mxCell id="In79gU82OMaWVXC0pcwa-117" style="edgeStyle=orthogonalEdgeStyle;rounded=0;orthogonalLoop=1;jettySize=auto;html=1;exitX=0.5;exitY=1;exitDx=0;exitDy=0;entryX=1;entryY=0.5;entryDx=0;entryDy=0;" edge="1" parent="1" source="oB9wCm33StctVlyddSk8-15" target="oB9wCm33StctVlyddSk8-22">
          <mxGeometry relative="1" as="geometry">
            <Array as="points">
              <mxPoint x="-180" y="2350" />
              <mxPoint x="1520" y="2350" />
              <mxPoint x="1520" y="873" />
            </Array>
          </mxGeometry>
        </mxCell>
        <mxCell id="In79gU82OMaWVXC0pcwa-195" style="edgeStyle=orthogonalEdgeStyle;rounded=0;orthogonalLoop=1;jettySize=auto;html=1;entryX=1;entryY=0.5;entryDx=0;entryDy=0;" edge="1" parent="1" source="oB9wCm33StctVlyddSk8-15" target="oB9wCm33StctVlyddSk8-14">
          <mxGeometry relative="1" as="geometry" />
        </mxCell>
        <mxCell id="In79gU82OMaWVXC0pcwa-259" style="edgeStyle=orthogonalEdgeStyle;rounded=0;orthogonalLoop=1;jettySize=auto;html=1;entryX=0;entryY=0.5;entryDx=0;entryDy=0;" edge="1" parent="1" source="oB9wCm33StctVlyddSk8-15" target="oB9wCm33StctVlyddSk8-18">
          <mxGeometry relative="1" as="geometry">
            <Array as="points">
              <mxPoint x="-50" y="1110" />
              <mxPoint x="-50" y="820" />
            </Array>
          </mxGeometry>
        </mxCell>
        <mxCell id="In79gU82OMaWVXC0pcwa-260" style="edgeStyle=orthogonalEdgeStyle;rounded=0;orthogonalLoop=1;jettySize=auto;html=1;entryX=0;entryY=0.5;entryDx=0;entryDy=0;" edge="1" parent="1" source="oB9wCm33StctVlyddSk8-15" target="oB9wCm33StctVlyddSk8-26">
          <mxGeometry relative="1" as="geometry" />
        </mxCell>
        <mxCell id="In79gU82OMaWVXC0pcwa-261" style="edgeStyle=orthogonalEdgeStyle;rounded=0;orthogonalLoop=1;jettySize=auto;html=1;exitX=1;exitY=0.5;exitDx=0;exitDy=0;entryX=0;entryY=0.5;entryDx=0;entryDy=0;" edge="1" parent="1" source="oB9wCm33StctVlyddSk8-15" target="oB9wCm33StctVlyddSk8-99">
          <mxGeometry relative="1" as="geometry" />
        </mxCell>
        <mxCell id="oB9wCm33StctVlyddSk8-15" value="API Gateway" style="rounded=0;whiteSpace=wrap;html=1;labelBackgroundColor=none;fillColor=#182E3E;strokeColor=#FFFFFF;fontColor=#FFFFFF;" parent="1" vertex="1">
          <mxGeometry x="-240" y="1080" width="120" height="60" as="geometry" />
        </mxCell>
        <mxCell id="In79gU82OMaWVXC0pcwa-138" style="edgeStyle=orthogonalEdgeStyle;rounded=0;orthogonalLoop=1;jettySize=auto;html=1;entryX=0;entryY=0.25;entryDx=0;entryDy=0;fillColor=#60a917;strokeColor=#2D7600;" edge="1" parent="1" source="oB9wCm33StctVlyddSk8-18" target="oB9wCm33StctVlyddSk8-76">
          <mxGeometry relative="1" as="geometry">
            <Array as="points">
              <mxPoint y="865" />
              <mxPoint y="1120" />
              <mxPoint x="1" y="1120" />
              <mxPoint x="1" y="1295" />
            </Array>
          </mxGeometry>
        </mxCell>
        <mxCell id="oB9wCm33StctVlyddSk8-18" value="" style="rounded=0;whiteSpace=wrap;html=1;labelBackgroundColor=none;fillColor=#182E3E;strokeColor=#FFFFFF;fontColor=#FFFFFF;" parent="1" vertex="1">
          <mxGeometry x="20" y="660" width="310" height="320" as="geometry" />
        </mxCell>
        <mxCell id="oB9wCm33StctVlyddSk8-19" value="Game Service" style="text;html=1;align=center;verticalAlign=middle;whiteSpace=wrap;rounded=0;labelBackgroundColor=none;fontColor=#FFFFFF;" parent="1" vertex="1">
          <mxGeometry x="20.5" y="660" width="170" height="30" as="geometry" />
        </mxCell>
        <mxCell id="oB9wCm33StctVlyddSk8-20" value="" style="shape=cylinder3;whiteSpace=wrap;html=1;boundedLbl=1;backgroundOutline=1;size=15;labelBackgroundColor=none;fillColor=#182E3E;strokeColor=#FFFFFF;fontColor=#FFFFFF;" parent="1" vertex="1">
          <mxGeometry x="35" y="860" width="50" height="70" as="geometry" />
        </mxCell>
        <mxCell id="oB9wCm33StctVlyddSk8-21" value="&lt;div&gt;&lt;font style=&quot;font-size: 8px;&quot;&gt;Game&lt;/font&gt;&lt;/div&gt;" style="text;html=1;align=center;verticalAlign=middle;whiteSpace=wrap;rounded=0;labelBackgroundColor=none;fontColor=#FFFFFF;" parent="1" vertex="1">
          <mxGeometry x="30" y="890" width="60" height="30" as="geometry" />
        </mxCell>
        <mxCell id="oB9wCm33StctVlyddSk8-22" value="" style="rounded=0;whiteSpace=wrap;html=1;labelBackgroundColor=none;fillColor=#182E3E;strokeColor=#FFFFFF;fontColor=#FFFFFF;" parent="1" vertex="1">
          <mxGeometry x="1170" y="767" width="242" height="213" as="geometry" />
        </mxCell>
        <mxCell id="oB9wCm33StctVlyddSk8-23" value="Search Service" style="text;html=1;align=center;verticalAlign=middle;whiteSpace=wrap;rounded=0;labelBackgroundColor=none;fontColor=#FFFFFF;" parent="1" vertex="1">
          <mxGeometry x="1210" y="767" width="160" height="30" as="geometry" />
        </mxCell>
        <mxCell id="oB9wCm33StctVlyddSk8-26" value="" style="rounded=0;whiteSpace=wrap;html=1;labelBackgroundColor=none;fillColor=#182E3E;strokeColor=#FFFFFF;fontColor=#FFFFFF;" parent="1" vertex="1">
          <mxGeometry x="21" y="430" width="310" height="210" as="geometry" />
        </mxCell>
        <mxCell id="oB9wCm33StctVlyddSk8-27" value="Item Service" style="text;html=1;align=center;verticalAlign=middle;whiteSpace=wrap;rounded=0;labelBackgroundColor=none;fontColor=#FFFFFF;" parent="1" vertex="1">
          <mxGeometry x="21" y="430" width="160" height="30" as="geometry" />
        </mxCell>
        <mxCell id="oB9wCm33StctVlyddSk8-28" value="" style="shape=cylinder3;whiteSpace=wrap;html=1;boundedLbl=1;backgroundOutline=1;size=15;labelBackgroundColor=none;fillColor=#182E3E;strokeColor=#FFFFFF;fontColor=#FFFFFF;" parent="1" vertex="1">
          <mxGeometry x="44" y="515" width="50" height="70" as="geometry" />
        </mxCell>
        <mxCell id="oB9wCm33StctVlyddSk8-29" value="&lt;div&gt;&lt;font style=&quot;font-size: 8px;&quot;&gt;Item&lt;/font&gt;&lt;/div&gt;" style="text;html=1;align=center;verticalAlign=middle;whiteSpace=wrap;rounded=0;labelBackgroundColor=none;fontColor=#FFFFFF;" parent="1" vertex="1">
          <mxGeometry x="39" y="545" width="60" height="30" as="geometry" />
        </mxCell>
        <mxCell id="oB9wCm33StctVlyddSk8-34" value="" style="shape=cylinder3;whiteSpace=wrap;html=1;boundedLbl=1;backgroundOutline=1;size=15;labelBackgroundColor=none;fillColor=#182E3E;strokeColor=#FFFFFF;fontColor=#FFFFFF;" parent="1" vertex="1">
          <mxGeometry x="185" y="860" width="50" height="70" as="geometry" />
        </mxCell>
        <mxCell id="oB9wCm33StctVlyddSk8-35" value="&lt;div&gt;&lt;font style=&quot;font-size: 8px;&quot;&gt;Game Info&lt;/font&gt;&lt;/div&gt;" style="text;html=1;align=center;verticalAlign=middle;whiteSpace=wrap;rounded=0;labelBackgroundColor=none;fontColor=#FFFFFF;" parent="1" vertex="1">
          <mxGeometry x="180" y="890" width="60" height="30" as="geometry" />
        </mxCell>
        <mxCell id="oB9wCm33StctVlyddSk8-36" value="" style="rounded=0;whiteSpace=wrap;html=1;labelBackgroundColor=none;fillColor=#182E3E;strokeColor=#FFFFFF;fontColor=#FFFFFF;" parent="1" vertex="1">
          <mxGeometry x="20" y="2080" width="320" height="220" as="geometry" />
        </mxCell>
        <mxCell id="oB9wCm33StctVlyddSk8-37" value="Achievement Service" style="text;html=1;align=center;verticalAlign=middle;whiteSpace=wrap;rounded=0;labelBackgroundColor=none;fontColor=#FFFFFF;" parent="1" vertex="1">
          <mxGeometry x="20" y="2080" width="160" height="30" as="geometry" />
        </mxCell>
        <mxCell id="oB9wCm33StctVlyddSk8-40" value="" style="rounded=0;whiteSpace=wrap;html=1;labelBackgroundColor=none;fillColor=#182E3E;strokeColor=#FFFFFF;fontColor=#FFFFFF;" parent="1" vertex="1">
          <mxGeometry x="21" y="1430" width="249" height="190" as="geometry" />
        </mxCell>
        <mxCell id="In79gU82OMaWVXC0pcwa-128" style="edgeStyle=orthogonalEdgeStyle;rounded=0;orthogonalLoop=1;jettySize=auto;html=1;entryX=0.5;entryY=1;entryDx=0;entryDy=0;fillColor=#60a917;strokeColor=#2D7600;" edge="1" parent="1" source="oB9wCm33StctVlyddSk8-41" target="oB9wCm33StctVlyddSk8-76">
          <mxGeometry relative="1" as="geometry">
            <Array as="points">
              <mxPoint x="146" y="1420" />
              <mxPoint x="176" y="1420" />
            </Array>
          </mxGeometry>
        </mxCell>
        <mxCell id="oB9wCm33StctVlyddSk8-41" value="Order Service" style="text;html=1;align=center;verticalAlign=middle;whiteSpace=wrap;rounded=0;labelBackgroundColor=none;fontColor=#FFFFFF;" parent="1" vertex="1">
          <mxGeometry x="21" y="1430" width="249" height="30" as="geometry" />
        </mxCell>
        <mxCell id="oB9wCm33StctVlyddSk8-42" value="" style="shape=cylinder3;whiteSpace=wrap;html=1;boundedLbl=1;backgroundOutline=1;size=15;labelBackgroundColor=none;fillColor=#182E3E;strokeColor=#FFFFFF;fontColor=#FFFFFF;" parent="1" vertex="1">
          <mxGeometry x="32" y="1526.5" width="50" height="70" as="geometry" />
        </mxCell>
        <mxCell id="oB9wCm33StctVlyddSk8-43" value="&lt;div&gt;&lt;font style=&quot;font-size: 8px;&quot;&gt;OrderItem&lt;/font&gt;&lt;/div&gt;" style="text;html=1;align=center;verticalAlign=middle;whiteSpace=wrap;rounded=0;labelBackgroundColor=none;fontColor=#FFFFFF;" parent="1" vertex="1">
          <mxGeometry x="27" y="1556.5" width="60" height="30" as="geometry" />
        </mxCell>
        <mxCell id="oB9wCm33StctVlyddSk8-47" value="" style="shape=cylinder3;whiteSpace=wrap;html=1;boundedLbl=1;backgroundOutline=1;size=15;labelBackgroundColor=none;fillColor=#182E3E;strokeColor=#FFFFFF;fontColor=#FFFFFF;" parent="1" vertex="1">
          <mxGeometry x="106" y="1527.5" width="50" height="70" as="geometry" />
        </mxCell>
        <mxCell id="oB9wCm33StctVlyddSk8-48" value="&lt;div&gt;&lt;font style=&quot;font-size: 8px;&quot;&gt;OrderGame&lt;/font&gt;&lt;/div&gt;" style="text;html=1;align=center;verticalAlign=middle;whiteSpace=wrap;rounded=0;labelBackgroundColor=none;fontColor=#FFFFFF;" parent="1" vertex="1">
          <mxGeometry x="101" y="1557.5" width="60" height="30" as="geometry" />
        </mxCell>
        <mxCell id="oB9wCm33StctVlyddSk8-58" value="" style="shape=cylinder3;whiteSpace=wrap;html=1;boundedLbl=1;backgroundOutline=1;size=15;labelBackgroundColor=none;fillColor=#182E3E;strokeColor=#FFFFFF;fontColor=#FFFFFF;" parent="1" vertex="1">
          <mxGeometry x="1184" y="847" width="50" height="70" as="geometry" />
        </mxCell>
        <mxCell id="oB9wCm33StctVlyddSk8-59" value="&lt;div&gt;&lt;font style=&quot;font-size: 8px;&quot;&gt;Game&lt;/font&gt;&lt;/div&gt;&lt;div&gt;&lt;font style=&quot;font-size: 8px;&quot;&gt;Search&lt;/font&gt;&lt;/div&gt;" style="text;html=1;align=center;verticalAlign=middle;whiteSpace=wrap;rounded=0;labelBackgroundColor=none;fontColor=#FFFFFF;" parent="1" vertex="1">
          <mxGeometry x="1179" y="877" width="60" height="30" as="geometry" />
        </mxCell>
        <mxCell id="oB9wCm33StctVlyddSk8-60" value="" style="shape=cylinder3;whiteSpace=wrap;html=1;boundedLbl=1;backgroundOutline=1;size=15;labelBackgroundColor=none;fillColor=#182E3E;strokeColor=#FFFFFF;fontColor=#FFFFFF;" parent="1" vertex="1">
          <mxGeometry x="1265" y="848" width="50" height="70" as="geometry" />
        </mxCell>
        <mxCell id="oB9wCm33StctVlyddSk8-61" value="&lt;div&gt;&lt;font style=&quot;font-size: 8px;&quot;&gt;Item&lt;/font&gt;&lt;/div&gt;&lt;div&gt;&lt;font style=&quot;font-size: 8px;&quot;&gt;Search&lt;/font&gt;&lt;/div&gt;" style="text;html=1;align=center;verticalAlign=middle;whiteSpace=wrap;rounded=0;labelBackgroundColor=none;fontColor=#FFFFFF;" parent="1" vertex="1">
          <mxGeometry x="1260" y="878" width="60" height="30" as="geometry" />
        </mxCell>
        <mxCell id="oB9wCm33StctVlyddSk8-63" value="&lt;div&gt;&lt;font style=&quot;font-size: 8px;&quot;&gt;User&amp;nbsp;&lt;/font&gt;&lt;/div&gt;&lt;div&gt;&lt;font style=&quot;font-size: 8px;&quot;&gt;Search&lt;/font&gt;&lt;/div&gt;" style="text;html=1;align=center;verticalAlign=middle;whiteSpace=wrap;rounded=0;labelBackgroundColor=none;fontColor=#FFFFFF;" parent="1" vertex="1">
          <mxGeometry x="1335" y="879" width="60" height="30" as="geometry" />
        </mxCell>
        <mxCell id="oB9wCm33StctVlyddSk8-64" value="" style="shape=cylinder3;whiteSpace=wrap;html=1;boundedLbl=1;backgroundOutline=1;size=15;labelBackgroundColor=none;fillColor=#182E3E;strokeColor=#FFFFFF;fontColor=#FFFFFF;" parent="1" vertex="1">
          <mxGeometry x="119.5" y="515" width="50" height="70" as="geometry" />
        </mxCell>
        <mxCell id="oB9wCm33StctVlyddSk8-65" value="&lt;div&gt;&lt;font style=&quot;font-size: 8px;&quot;&gt;UserItem&lt;/font&gt;&lt;/div&gt;" style="text;html=1;align=center;verticalAlign=middle;whiteSpace=wrap;rounded=0;labelBackgroundColor=none;fontColor=#FFFFFF;" parent="1" vertex="1">
          <mxGeometry x="114.5" y="545" width="60" height="30" as="geometry" />
        </mxCell>
        <mxCell id="oB9wCm33StctVlyddSk8-70" value="" style="shape=cylinder3;whiteSpace=wrap;html=1;boundedLbl=1;backgroundOutline=1;size=15;labelBackgroundColor=none;fillColor=#182E3E;strokeColor=#FFFFFF;fontColor=#FFFFFF;" parent="1" vertex="1">
          <mxGeometry x="116" y="1065" width="50" height="70" as="geometry" />
        </mxCell>
        <mxCell id="oB9wCm33StctVlyddSk8-71" value="&lt;div&gt;&lt;font style=&quot;font-size: 8px;&quot;&gt;Wallet&lt;/font&gt;&lt;/div&gt;" style="text;html=1;align=center;verticalAlign=middle;whiteSpace=wrap;rounded=0;labelBackgroundColor=none;fontColor=#FFFFFF;" parent="1" vertex="1">
          <mxGeometry x="111" y="1095" width="60" height="30" as="geometry" />
        </mxCell>
        <mxCell id="oB9wCm33StctVlyddSk8-74" value="" style="shape=cylinder3;whiteSpace=wrap;html=1;boundedLbl=1;backgroundOutline=1;size=15;labelBackgroundColor=none;fillColor=#182E3E;strokeColor=#FFFFFF;fontColor=#FFFFFF;" parent="1" vertex="1">
          <mxGeometry x="109" y="860" width="50" height="70" as="geometry" />
        </mxCell>
        <mxCell id="oB9wCm33StctVlyddSk8-75" value="&lt;div&gt;&lt;font style=&quot;font-size: 8px;&quot;&gt;UserGame&lt;/font&gt;&lt;/div&gt;" style="text;html=1;align=center;verticalAlign=middle;whiteSpace=wrap;rounded=0;labelBackgroundColor=none;fontColor=#FFFFFF;" parent="1" vertex="1">
          <mxGeometry x="104" y="890" width="60" height="30" as="geometry" />
        </mxCell>
        <mxCell id="oB9wCm33StctVlyddSk8-76" value="" style="rounded=0;whiteSpace=wrap;html=1;labelBackgroundColor=none;fillColor=#182E3E;strokeColor=#FFFFFF;fontColor=#FFFFFF;" parent="1" vertex="1">
          <mxGeometry x="21" y="1260" width="309" height="140" as="geometry" />
        </mxCell>
        <mxCell id="oB9wCm33StctVlyddSk8-78" value="" style="shape=cylinder3;whiteSpace=wrap;html=1;boundedLbl=1;backgroundOutline=1;size=15;labelBackgroundColor=none;fillColor=#182E3E;strokeColor=#FFFFFF;fontColor=#FFFFFF;" parent="1" vertex="1">
          <mxGeometry x="146" y="1303.25" width="50" height="70" as="geometry" />
        </mxCell>
        <mxCell id="oB9wCm33StctVlyddSk8-79" value="&lt;div&gt;&lt;font style=&quot;font-size: 8px;&quot;&gt;Session&lt;/font&gt;&lt;/div&gt;" style="text;html=1;align=center;verticalAlign=middle;whiteSpace=wrap;rounded=0;labelBackgroundColor=none;fontColor=#FFFFFF;" parent="1" vertex="1">
          <mxGeometry x="141" y="1333.25" width="60" height="30" as="geometry" />
        </mxCell>
        <mxCell id="oB9wCm33StctVlyddSk8-82" value="Auth Service" style="text;html=1;align=center;verticalAlign=middle;whiteSpace=wrap;rounded=0;labelBackgroundColor=none;fontColor=#FFFFFF;" parent="1" vertex="1">
          <mxGeometry x="49" y="1261.25" width="160" height="30" as="geometry" />
        </mxCell>
        <mxCell id="oB9wCm33StctVlyddSk8-99" value="" style="rounded=0;whiteSpace=wrap;html=1;labelBackgroundColor=none;fillColor=#182E3E;strokeColor=#FFFFFF;fontColor=#FFFFFF;" parent="1" vertex="1">
          <mxGeometry x="22" y="180" width="309" height="230" as="geometry" />
        </mxCell>
        <mxCell id="oB9wCm33StctVlyddSk8-100" value="Screenshot Service" style="text;html=1;align=center;verticalAlign=middle;whiteSpace=wrap;rounded=0;labelBackgroundColor=none;fontColor=#FFFFFF;" parent="1" vertex="1">
          <mxGeometry x="21" y="180" width="160" height="30" as="geometry" />
        </mxCell>
        <mxCell id="oB9wCm33StctVlyddSk8-97" value="" style="shape=cylinder3;whiteSpace=wrap;html=1;boundedLbl=1;backgroundOutline=1;size=15;labelBackgroundColor=none;fillColor=#182E3E;strokeColor=#FFFFFF;fontColor=#FFFFFF;" parent="1" vertex="1">
          <mxGeometry x="266" y="260" width="50" height="70" as="geometry" />
        </mxCell>
        <mxCell id="oB9wCm33StctVlyddSk8-98" value="&lt;div&gt;&lt;font style=&quot;font-size: 8px;&quot;&gt;Screenshot&lt;/font&gt;&lt;/div&gt;" style="text;html=1;align=center;verticalAlign=middle;whiteSpace=wrap;rounded=0;labelBackgroundColor=none;fontColor=#FFFFFF;" parent="1" vertex="1">
          <mxGeometry x="261" y="290" width="60" height="30" as="geometry" />
        </mxCell>
        <mxCell id="oB9wCm33StctVlyddSk8-103" value="" style="rounded=0;whiteSpace=wrap;html=1;labelBackgroundColor=none;fillColor=#182E3E;strokeColor=#FFFFFF;fontColor=#FFFFFF;" parent="1" vertex="1">
          <mxGeometry x="21" y="1654" width="249" height="186" as="geometry" />
        </mxCell>
        <mxCell id="oB9wCm33StctVlyddSk8-104" value="" style="shape=cylinder3;whiteSpace=wrap;html=1;boundedLbl=1;backgroundOutline=1;size=15;labelBackgroundColor=none;fillColor=#182E3E;strokeColor=#FFFFFF;fontColor=#FFFFFF;" parent="1" vertex="1">
          <mxGeometry x="36" y="1751" width="50" height="70" as="geometry" />
        </mxCell>
        <mxCell id="oB9wCm33StctVlyddSk8-105" value="&lt;div&gt;&lt;font style=&quot;font-size: 8px;&quot;&gt;Multiplayer&lt;/font&gt;&lt;/div&gt;&lt;div&gt;&lt;font style=&quot;font-size: 8px;&quot;&gt;Session&lt;/font&gt;&lt;/div&gt;" style="text;html=1;align=center;verticalAlign=middle;whiteSpace=wrap;rounded=0;labelBackgroundColor=none;fontColor=#FFFFFF;" parent="1" vertex="1">
          <mxGeometry x="31" y="1781" width="60" height="30" as="geometry" />
        </mxCell>
        <mxCell id="In79gU82OMaWVXC0pcwa-129" style="edgeStyle=orthogonalEdgeStyle;rounded=0;orthogonalLoop=1;jettySize=auto;html=1;entryX=0.5;entryY=1;entryDx=0;entryDy=0;fillColor=#60a917;strokeColor=#2D7600;" edge="1" parent="1" source="oB9wCm33StctVlyddSk8-106" target="oB9wCm33StctVlyddSk8-76">
          <mxGeometry relative="1" as="geometry">
            <Array as="points">
              <mxPoint x="-10" y="1669" />
              <mxPoint x="-10" y="1420" />
              <mxPoint x="176" y="1420" />
            </Array>
          </mxGeometry>
        </mxCell>
        <mxCell id="oB9wCm33StctVlyddSk8-106" value="Multiplayer Service" style="text;html=1;align=center;verticalAlign=middle;whiteSpace=wrap;rounded=0;labelBackgroundColor=none;fontColor=#FFFFFF;" parent="1" vertex="1">
          <mxGeometry x="21" y="1654" width="249" height="30" as="geometry" />
        </mxCell>
        <mxCell id="oB9wCm33StctVlyddSk8-107" value="" style="shape=cylinder3;whiteSpace=wrap;html=1;boundedLbl=1;backgroundOutline=1;size=15;labelBackgroundColor=none;fillColor=#182E3E;strokeColor=#FFFFFF;fontColor=#FFFFFF;" parent="1" vertex="1">
          <mxGeometry x="116" y="1753" width="50" height="70" as="geometry" />
        </mxCell>
        <mxCell id="oB9wCm33StctVlyddSk8-108" value="&lt;div&gt;&lt;font style=&quot;font-size: 8px;&quot;&gt;User&lt;/font&gt;&lt;/div&gt;&lt;div&gt;&lt;font style=&quot;font-size: 8px;&quot;&gt;Multiplayer&lt;/font&gt;&lt;/div&gt;&lt;div&gt;&lt;font style=&quot;font-size: 8px;&quot;&gt;Session&lt;/font&gt;&lt;/div&gt;" style="text;html=1;align=center;verticalAlign=middle;whiteSpace=wrap;rounded=0;labelBackgroundColor=none;fontColor=#FFFFFF;" parent="1" vertex="1">
          <mxGeometry x="111" y="1783" width="60" height="30" as="geometry" />
        </mxCell>
        <mxCell id="In79gU82OMaWVXC0pcwa-71" style="edgeStyle=orthogonalEdgeStyle;rounded=0;orthogonalLoop=1;jettySize=auto;html=1;dashed=1;dashPattern=8 8;" edge="1" parent="1" source="oB9wCm33StctVlyddSk8-150" target="In79gU82OMaWVXC0pcwa-51">
          <mxGeometry relative="1" as="geometry" />
        </mxCell>
        <mxCell id="oB9wCm33StctVlyddSk8-150" value="&lt;div&gt;order&lt;/div&gt;&lt;div&gt;queue&lt;/div&gt;" style="strokeWidth=2;html=1;shape=mxgraph.flowchart.direct_data;whiteSpace=wrap;labelBackgroundColor=none;fillColor=#182E3E;strokeColor=#FFFFFF;fontColor=#FFFFFF;" parent="1" vertex="1">
          <mxGeometry x="330" y="1455" width="100" height="60" as="geometry" />
        </mxCell>
        <mxCell id="oB9wCm33StctVlyddSk8-151" value="&lt;div&gt;payment&lt;/div&gt;&lt;div&gt;processor&lt;/div&gt;" style="rounded=0;whiteSpace=wrap;html=1;labelBackgroundColor=none;fillColor=#182E3E;strokeColor=#FFFFFF;fontColor=#FFFFFF;" parent="1" vertex="1">
          <mxGeometry x="520" y="1455" width="130" height="60" as="geometry" />
        </mxCell>
        <mxCell id="oB9wCm33StctVlyddSk8-167" value="&lt;div&gt;S3&lt;/div&gt;&lt;div&gt;(games)&lt;/div&gt;" style="ellipse;shape=cloud;whiteSpace=wrap;html=1;labelBackgroundColor=none;fillColor=#182E3E;strokeColor=#FFFFFF;fontColor=#FFFFFF;" parent="1" vertex="1">
          <mxGeometry x="-240" y="630" width="170" height="120" as="geometry" />
        </mxCell>
        <mxCell id="oB9wCm33StctVlyddSk8-179" value="" style="ellipse;whiteSpace=wrap;html=1;labelBackgroundColor=none;fillColor=#182E3E;strokeColor=#FFFFFF;fontColor=#FFFFFF;" parent="1" vertex="1">
          <mxGeometry x="-780" y="1320" width="550" height="220" as="geometry" />
        </mxCell>
        <mxCell id="oB9wCm33StctVlyddSk8-169" value="Flow метрик для каждого микросервиса" style="text;html=1;align=center;verticalAlign=middle;whiteSpace=wrap;rounded=0;labelBackgroundColor=none;fontColor=#FFFFFF;" parent="1" vertex="1">
          <mxGeometry x="-665" y="1350" width="310" height="50" as="geometry" />
        </mxCell>
        <mxCell id="oB9wCm33StctVlyddSk8-174" value="микросервис" style="rounded=0;whiteSpace=wrap;html=1;labelBackgroundColor=none;fillColor=#182E3E;strokeColor=#FFFFFF;fontColor=#FFFFFF;" parent="1" vertex="1">
          <mxGeometry x="-735" y="1400" width="120" height="60" as="geometry" />
        </mxCell>
        <mxCell id="oB9wCm33StctVlyddSk8-177" style="edgeStyle=orthogonalEdgeStyle;rounded=0;orthogonalLoop=1;jettySize=auto;html=1;exitX=1;exitY=0.5;exitDx=0;exitDy=0;entryX=0;entryY=0.5;entryDx=0;entryDy=0;labelBackgroundColor=none;strokeColor=#23445D;fontColor=default;" parent="1" source="oB9wCm33StctVlyddSk8-175" target="oB9wCm33StctVlyddSk8-176" edge="1">
          <mxGeometry relative="1" as="geometry" />
        </mxCell>
        <mxCell id="oB9wCm33StctVlyddSk8-178" style="edgeStyle=orthogonalEdgeStyle;rounded=0;orthogonalLoop=1;jettySize=auto;html=1;entryX=1;entryY=0.5;entryDx=0;entryDy=0;labelBackgroundColor=none;strokeColor=#23445D;fontColor=default;" parent="1" source="oB9wCm33StctVlyddSk8-175" target="oB9wCm33StctVlyddSk8-174" edge="1">
          <mxGeometry relative="1" as="geometry" />
        </mxCell>
        <mxCell id="oB9wCm33StctVlyddSk8-175" value="prometheus" style="rounded=0;whiteSpace=wrap;html=1;labelBackgroundColor=none;fillColor=#182E3E;strokeColor=#FFFFFF;fontColor=#FFFFFF;" parent="1" vertex="1">
          <mxGeometry x="-565" y="1400" width="120" height="60" as="geometry" />
        </mxCell>
        <mxCell id="oB9wCm33StctVlyddSk8-176" value="grafana" style="rounded=0;whiteSpace=wrap;html=1;labelBackgroundColor=none;fillColor=#182E3E;strokeColor=#FFFFFF;fontColor=#FFFFFF;" parent="1" vertex="1">
          <mxGeometry x="-405" y="1400" width="120" height="60" as="geometry" />
        </mxCell>
        <mxCell id="In79gU82OMaWVXC0pcwa-194" style="edgeStyle=orthogonalEdgeStyle;rounded=0;orthogonalLoop=1;jettySize=auto;html=1;entryX=0.5;entryY=1;entryDx=0;entryDy=0;" edge="1" parent="1" source="oB9wCm33StctVlyddSk8-184" target="oB9wCm33StctVlyddSk8-15">
          <mxGeometry relative="1" as="geometry">
            <Array as="points">
              <mxPoint x="1470" y="1140" />
              <mxPoint x="1470" y="2350" />
              <mxPoint x="-180" y="2350" />
            </Array>
          </mxGeometry>
        </mxCell>
        <mxCell id="oB9wCm33StctVlyddSk8-184" value="" style="rounded=0;whiteSpace=wrap;html=1;labelBackgroundColor=none;fillColor=#182E3E;strokeColor=#FFFFFF;fontColor=#FFFFFF;" parent="1" vertex="1">
          <mxGeometry x="1170" y="1070" width="250" height="140" as="geometry" />
        </mxCell>
        <mxCell id="oB9wCm33StctVlyddSk8-207" value="" style="shape=cylinder3;whiteSpace=wrap;html=1;boundedLbl=1;backgroundOutline=1;size=15;labelBackgroundColor=none;fillColor=#182E3E;strokeColor=#FFFFFF;fontColor=#FFFFFF;" parent="1" vertex="1">
          <mxGeometry x="255" y="860" width="50" height="70" as="geometry" />
        </mxCell>
        <mxCell id="oB9wCm33StctVlyddSk8-208" value="&lt;div&gt;&lt;font style=&quot;font-size: 8px;&quot;&gt;Review&lt;/font&gt;&lt;/div&gt;" style="text;html=1;align=center;verticalAlign=middle;whiteSpace=wrap;rounded=0;labelBackgroundColor=none;fontColor=#FFFFFF;" parent="1" vertex="1">
          <mxGeometry x="250" y="890" width="60" height="30" as="geometry" />
        </mxCell>
        <mxCell id="In79gU82OMaWVXC0pcwa-190" style="edgeStyle=orthogonalEdgeStyle;rounded=0;orthogonalLoop=1;jettySize=auto;html=1;entryX=0;entryY=0.5;entryDx=0;entryDy=0;" edge="1" parent="1" source="In79gU82OMaWVXC0pcwa-13" target="In79gU82OMaWVXC0pcwa-187">
          <mxGeometry relative="1" as="geometry" />
        </mxCell>
        <mxCell id="In79gU82OMaWVXC0pcwa-13" value="Actor" style="shape=umlActor;verticalLabelPosition=bottom;verticalAlign=top;html=1;outlineConnect=0;" vertex="1" parent="1">
          <mxGeometry x="-740" y="1080" width="30" height="60" as="geometry" />
        </mxCell>
        <mxCell id="In79gU82OMaWVXC0pcwa-17" value="&lt;div&gt;&lt;font style=&quot;font-size: 8px;&quot;&gt;Service&lt;/font&gt;&lt;/div&gt;" style="rounded=0;whiteSpace=wrap;html=1;labelBackgroundColor=none;fillColor=#182E3E;strokeColor=#FFFFFF;fontColor=#FFFFFF;" vertex="1" parent="1">
          <mxGeometry x="41" y="1160" width="129" height="30" as="geometry" />
        </mxCell>
        <mxCell id="In79gU82OMaWVXC0pcwa-22" style="edgeStyle=orthogonalEdgeStyle;rounded=0;orthogonalLoop=1;jettySize=auto;html=1;exitX=1;exitY=0.25;exitDx=0;exitDy=0;entryX=0;entryY=0.5;entryDx=0;entryDy=0;entryPerimeter=0;" edge="1" parent="1" source="In79gU82OMaWVXC0pcwa-20" target="oB9wCm33StctVlyddSk8-78">
          <mxGeometry relative="1" as="geometry" />
        </mxCell>
        <mxCell id="In79gU82OMaWVXC0pcwa-20" value="&lt;div&gt;&lt;font style=&quot;font-size: 8px;&quot;&gt;Service&lt;/font&gt;&lt;/div&gt;" style="rounded=0;whiteSpace=wrap;html=1;labelBackgroundColor=none;fillColor=#182E3E;strokeColor=#FFFFFF;fontColor=#FFFFFF;" vertex="1" parent="1">
          <mxGeometry x="39" y="1331" width="65" height="30" as="geometry" />
        </mxCell>
        <mxCell id="In79gU82OMaWVXC0pcwa-21" style="edgeStyle=orthogonalEdgeStyle;rounded=0;orthogonalLoop=1;jettySize=auto;html=1;dashed=1;exitX=1;exitY=0.75;exitDx=0;exitDy=0;entryX=0.005;entryY=0.72;entryDx=0;entryDy=0;entryPerimeter=0;" edge="1" parent="1" source="In79gU82OMaWVXC0pcwa-20" target="oB9wCm33StctVlyddSk8-78">
          <mxGeometry relative="1" as="geometry">
            <mxPoint x="141" y="1357" as="targetPoint" />
          </mxGeometry>
        </mxCell>
        <mxCell id="In79gU82OMaWVXC0pcwa-31" style="edgeStyle=orthogonalEdgeStyle;rounded=0;orthogonalLoop=1;jettySize=auto;html=1;exitX=0.75;exitY=0;exitDx=0;exitDy=0;entryX=0.433;entryY=0.99;entryDx=0;entryDy=0;entryPerimeter=0;" edge="1" parent="1" source="In79gU82OMaWVXC0pcwa-17" target="oB9wCm33StctVlyddSk8-70">
          <mxGeometry relative="1" as="geometry" />
        </mxCell>
        <mxCell id="In79gU82OMaWVXC0pcwa-33" value="&lt;div&gt;&lt;font style=&quot;font-size: 8px;&quot;&gt;UserWorker&lt;/font&gt;&lt;/div&gt;" style="rounded=0;whiteSpace=wrap;html=1;labelBackgroundColor=none;fillColor=#182E3E;strokeColor=#FFFFFF;fontColor=#FFFFFF;" vertex="1" parent="1">
          <mxGeometry x="230" y="1020" width="80" height="30" as="geometry" />
        </mxCell>
        <mxCell id="In79gU82OMaWVXC0pcwa-34" style="edgeStyle=orthogonalEdgeStyle;rounded=0;orthogonalLoop=1;jettySize=auto;html=1;entryX=0.5;entryY=0;entryDx=0;entryDy=0;entryPerimeter=0;dashed=1;" edge="1" parent="1" source="In79gU82OMaWVXC0pcwa-33" target="oB9wCm33StctVlyddSk8-9">
          <mxGeometry relative="1" as="geometry" />
        </mxCell>
        <mxCell id="In79gU82OMaWVXC0pcwa-46" style="edgeStyle=orthogonalEdgeStyle;rounded=0;orthogonalLoop=1;jettySize=auto;html=1;exitX=1;exitY=0.5;exitDx=0;exitDy=0;entryX=0.047;entryY=0.952;entryDx=0;entryDy=0;entryPerimeter=0;dashed=1;dashPattern=8 8;" edge="1" parent="1" source="In79gU82OMaWVXC0pcwa-35" target="In79gU82OMaWVXC0pcwa-38">
          <mxGeometry relative="1" as="geometry">
            <mxPoint x="710" y="1084.857142857143" as="targetPoint" />
          </mxGeometry>
        </mxCell>
        <mxCell id="In79gU82OMaWVXC0pcwa-47" value="READ:&lt;br&gt;wallet update" style="edgeLabel;html=1;align=center;verticalAlign=middle;resizable=0;points=[];" vertex="1" connectable="0" parent="In79gU82OMaWVXC0pcwa-46">
          <mxGeometry x="-0.1382" y="1" relative="1" as="geometry">
            <mxPoint as="offset" />
          </mxGeometry>
        </mxCell>
        <mxCell id="In79gU82OMaWVXC0pcwa-35" value="&lt;div&gt;&lt;font style=&quot;font-size: 8px;&quot;&gt;WalletWorker&lt;/font&gt;&lt;/div&gt;" style="rounded=0;whiteSpace=wrap;html=1;labelBackgroundColor=none;fillColor=#182E3E;strokeColor=#FFFFFF;fontColor=#FFFFFF;" vertex="1" parent="1">
          <mxGeometry x="230" y="1070" width="80" height="30" as="geometry" />
        </mxCell>
        <mxCell id="In79gU82OMaWVXC0pcwa-36" style="edgeStyle=orthogonalEdgeStyle;rounded=0;orthogonalLoop=1;jettySize=auto;html=1;entryX=0.5;entryY=0;entryDx=0;entryDy=0;entryPerimeter=0;dashed=1;" edge="1" parent="1" source="In79gU82OMaWVXC0pcwa-35" target="oB9wCm33StctVlyddSk8-70">
          <mxGeometry relative="1" as="geometry" />
        </mxCell>
        <mxCell id="In79gU82OMaWVXC0pcwa-38" value="&lt;font style=&quot;font-size: 18px;&quot;&gt;Kafka&lt;/font&gt;" style="strokeWidth=2;html=1;shape=mxgraph.flowchart.direct_data;whiteSpace=wrap;labelBackgroundColor=none;fillColor=#182E3E;strokeColor=#FFFFFF;fontColor=#FFFFFF;" vertex="1" parent="1">
          <mxGeometry x="730" y="970" width="280" height="120" as="geometry" />
        </mxCell>
        <mxCell id="In79gU82OMaWVXC0pcwa-40" style="edgeStyle=orthogonalEdgeStyle;rounded=0;orthogonalLoop=1;jettySize=auto;html=1;entryX=0.822;entryY=0.955;entryDx=0;entryDy=0;entryPerimeter=0;" edge="1" parent="1" target="oB9wCm33StctVlyddSk8-9">
          <mxGeometry relative="1" as="geometry">
            <mxPoint x="87" y="1160" as="sourcePoint" />
          </mxGeometry>
        </mxCell>
        <mxCell id="In79gU82OMaWVXC0pcwa-41" style="edgeStyle=orthogonalEdgeStyle;rounded=0;orthogonalLoop=1;jettySize=auto;html=1;exitX=0.155;exitY=-0.012;exitDx=0;exitDy=0;entryX=0.299;entryY=0.989;entryDx=0;entryDy=0;entryPerimeter=0;exitPerimeter=0;dashed=1;" edge="1" parent="1" source="In79gU82OMaWVXC0pcwa-17" target="oB9wCm33StctVlyddSk8-9">
          <mxGeometry relative="1" as="geometry" />
        </mxCell>
        <mxCell id="In79gU82OMaWVXC0pcwa-43" style="edgeStyle=orthogonalEdgeStyle;rounded=0;orthogonalLoop=1;jettySize=auto;html=1;dashed=1;exitX=1;exitY=0.5;exitDx=0;exitDy=0;dashPattern=8 8;" edge="1" parent="1" source="In79gU82OMaWVXC0pcwa-67">
          <mxGeometry relative="1" as="geometry">
            <mxPoint x="340" y="1280" as="sourcePoint" />
            <mxPoint x="760" y="1100" as="targetPoint" />
          </mxGeometry>
        </mxCell>
        <mxCell id="In79gU82OMaWVXC0pcwa-44" value="WRITE:&lt;br&gt;user added" style="edgeLabel;html=1;align=center;verticalAlign=middle;resizable=0;points=[];" vertex="1" connectable="0" parent="In79gU82OMaWVXC0pcwa-43">
          <mxGeometry x="-0.2711" y="-4" relative="1" as="geometry">
            <mxPoint as="offset" />
          </mxGeometry>
        </mxCell>
        <mxCell id="In79gU82OMaWVXC0pcwa-48" style="edgeStyle=orthogonalEdgeStyle;rounded=0;orthogonalLoop=1;jettySize=auto;html=1;exitX=1;exitY=0.5;exitDx=0;exitDy=0;entryX=0.002;entryY=0.548;entryDx=0;entryDy=0;entryPerimeter=0;dashed=1;dashPattern=8 8;" edge="1" parent="1" source="In79gU82OMaWVXC0pcwa-33" target="In79gU82OMaWVXC0pcwa-38">
          <mxGeometry relative="1" as="geometry" />
        </mxCell>
        <mxCell id="In79gU82OMaWVXC0pcwa-49" value="READ:&lt;div&gt;user added&lt;/div&gt;user update" style="edgeLabel;html=1;align=center;verticalAlign=middle;resizable=0;points=[];" vertex="1" connectable="0" parent="In79gU82OMaWVXC0pcwa-48">
          <mxGeometry x="0.0643" y="2" relative="1" as="geometry">
            <mxPoint as="offset" />
          </mxGeometry>
        </mxCell>
        <mxCell id="In79gU82OMaWVXC0pcwa-51" value="&lt;div&gt;&lt;font style=&quot;font-size: 8px;&quot;&gt;Service&lt;/font&gt;&lt;/div&gt;" style="rounded=0;whiteSpace=wrap;html=1;labelBackgroundColor=none;fillColor=#182E3E;strokeColor=#FFFFFF;fontColor=#FFFFFF;" vertex="1" parent="1">
          <mxGeometry x="36" y="1470" width="114" height="30" as="geometry" />
        </mxCell>
        <mxCell id="In79gU82OMaWVXC0pcwa-55" style="edgeStyle=orthogonalEdgeStyle;rounded=0;orthogonalLoop=1;jettySize=auto;html=1;exitX=0.052;exitY=1;exitDx=0;exitDy=0;entryX=0.206;entryY=0.055;entryDx=0;entryDy=0;entryPerimeter=0;exitPerimeter=0;" edge="1" parent="1" source="In79gU82OMaWVXC0pcwa-51" target="oB9wCm33StctVlyddSk8-42">
          <mxGeometry relative="1" as="geometry" />
        </mxCell>
        <mxCell id="In79gU82OMaWVXC0pcwa-56" style="edgeStyle=orthogonalEdgeStyle;rounded=0;orthogonalLoop=1;jettySize=auto;html=1;exitX=0.052;exitY=1;exitDx=0;exitDy=0;entryX=0.206;entryY=0.055;entryDx=0;entryDy=0;entryPerimeter=0;exitPerimeter=0;dashed=1;" edge="1" parent="1">
          <mxGeometry relative="1" as="geometry">
            <mxPoint x="70.93" y="1500" as="sourcePoint" />
            <mxPoint x="70.93" y="1530" as="targetPoint" />
          </mxGeometry>
        </mxCell>
        <mxCell id="In79gU82OMaWVXC0pcwa-57" style="edgeStyle=orthogonalEdgeStyle;rounded=0;orthogonalLoop=1;jettySize=auto;html=1;exitX=0.052;exitY=1;exitDx=0;exitDy=0;entryX=0.206;entryY=0.055;entryDx=0;entryDy=0;entryPerimeter=0;exitPerimeter=0;" edge="1" parent="1">
          <mxGeometry relative="1" as="geometry">
            <mxPoint x="116" y="1500" as="sourcePoint" />
            <mxPoint x="116" y="1530" as="targetPoint" />
          </mxGeometry>
        </mxCell>
        <mxCell id="In79gU82OMaWVXC0pcwa-58" style="edgeStyle=orthogonalEdgeStyle;rounded=0;orthogonalLoop=1;jettySize=auto;html=1;exitX=0.052;exitY=1;exitDx=0;exitDy=0;entryX=0.206;entryY=0.055;entryDx=0;entryDy=0;entryPerimeter=0;exitPerimeter=0;dashed=1;" edge="1" parent="1">
          <mxGeometry relative="1" as="geometry">
            <mxPoint x="144.87" y="1500" as="sourcePoint" />
            <mxPoint x="144.87" y="1530" as="targetPoint" />
          </mxGeometry>
        </mxCell>
        <mxCell id="In79gU82OMaWVXC0pcwa-59" style="edgeStyle=orthogonalEdgeStyle;rounded=0;orthogonalLoop=1;jettySize=auto;html=1;exitX=1;exitY=0.5;exitDx=0;exitDy=0;entryX=0;entryY=0.5;entryDx=0;entryDy=0;entryPerimeter=0;dashed=1;" edge="1" parent="1" source="In79gU82OMaWVXC0pcwa-51" target="oB9wCm33StctVlyddSk8-150">
          <mxGeometry relative="1" as="geometry" />
        </mxCell>
        <mxCell id="In79gU82OMaWVXC0pcwa-61" style="edgeStyle=orthogonalEdgeStyle;rounded=0;orthogonalLoop=1;jettySize=auto;html=1;exitX=0;exitY=0.75;exitDx=0;exitDy=0;entryX=1.003;entryY=0.751;entryDx=0;entryDy=0;entryPerimeter=0;" edge="1" parent="1" source="oB9wCm33StctVlyddSk8-151" target="oB9wCm33StctVlyddSk8-150">
          <mxGeometry relative="1" as="geometry" />
        </mxCell>
        <mxCell id="In79gU82OMaWVXC0pcwa-67" value="&lt;div&gt;&lt;font style=&quot;font-size: 8px;&quot;&gt;Orchestrator&lt;/font&gt;&lt;/div&gt;" style="rounded=0;whiteSpace=wrap;html=1;labelBackgroundColor=none;fillColor=#182E3E;strokeColor=#FFFFFF;fontColor=#FFFFFF;" vertex="1" parent="1">
          <mxGeometry x="244.5" y="1274.25" width="65" height="30" as="geometry" />
        </mxCell>
        <mxCell id="In79gU82OMaWVXC0pcwa-74" style="edgeStyle=orthogonalEdgeStyle;rounded=0;orthogonalLoop=1;jettySize=auto;html=1;dashed=1;dashPattern=8 8;" edge="1" parent="1" source="In79gU82OMaWVXC0pcwa-68">
          <mxGeometry relative="1" as="geometry">
            <mxPoint x="800" y="1099.9999999999998" as="targetPoint" />
          </mxGeometry>
        </mxCell>
        <mxCell id="In79gU82OMaWVXC0pcwa-75" value="WRITE:&lt;div&gt;wallet update&lt;/div&gt;&lt;div&gt;usergame update&lt;/div&gt;&lt;div&gt;useritem update&lt;/div&gt;&lt;div&gt;user update&lt;/div&gt;&lt;div&gt;notify&lt;/div&gt;" style="edgeLabel;html=1;align=center;verticalAlign=middle;resizable=0;points=[];" vertex="1" connectable="0" parent="In79gU82OMaWVXC0pcwa-74">
          <mxGeometry x="0.5452" y="1" relative="1" as="geometry">
            <mxPoint as="offset" />
          </mxGeometry>
        </mxCell>
        <mxCell id="In79gU82OMaWVXC0pcwa-68" value="&lt;div&gt;&lt;font style=&quot;font-size: 8px;&quot;&gt;Orchestrator&lt;/font&gt;&lt;/div&gt;" style="rounded=0;whiteSpace=wrap;html=1;labelBackgroundColor=none;fillColor=#182E3E;strokeColor=#FFFFFF;fontColor=#FFFFFF;" vertex="1" parent="1">
          <mxGeometry x="180" y="1556.5" width="65" height="30" as="geometry" />
        </mxCell>
        <mxCell id="In79gU82OMaWVXC0pcwa-73" style="edgeStyle=orthogonalEdgeStyle;rounded=0;orthogonalLoop=1;jettySize=auto;html=1;exitX=0;exitY=0.25;exitDx=0;exitDy=0;entryX=1.009;entryY=0.249;entryDx=0;entryDy=0;entryPerimeter=0;dashed=1;dashPattern=8 8;" edge="1" parent="1" source="oB9wCm33StctVlyddSk8-151" target="oB9wCm33StctVlyddSk8-150">
          <mxGeometry relative="1" as="geometry" />
        </mxCell>
        <mxCell id="In79gU82OMaWVXC0pcwa-77" value="&lt;div&gt;&lt;font style=&quot;font-size: 8px;&quot;&gt;Service&lt;/font&gt;&lt;/div&gt;" style="rounded=0;whiteSpace=wrap;html=1;labelBackgroundColor=none;fillColor=#182E3E;strokeColor=#FFFFFF;fontColor=#FFFFFF;" vertex="1" parent="1">
          <mxGeometry x="46" y="1692" width="114" height="30" as="geometry" />
        </mxCell>
        <mxCell id="In79gU82OMaWVXC0pcwa-79" style="edgeStyle=orthogonalEdgeStyle;rounded=0;orthogonalLoop=1;jettySize=auto;html=1;exitX=0.052;exitY=1;exitDx=0;exitDy=0;entryX=0.206;entryY=0.055;entryDx=0;entryDy=0;entryPerimeter=0;exitPerimeter=0;" edge="1" parent="1">
          <mxGeometry relative="1" as="geometry">
            <mxPoint x="49" y="1722" as="sourcePoint" />
            <mxPoint x="49" y="1752" as="targetPoint" />
          </mxGeometry>
        </mxCell>
        <mxCell id="In79gU82OMaWVXC0pcwa-80" style="edgeStyle=orthogonalEdgeStyle;rounded=0;orthogonalLoop=1;jettySize=auto;html=1;exitX=0.052;exitY=1;exitDx=0;exitDy=0;entryX=0.206;entryY=0.055;entryDx=0;entryDy=0;entryPerimeter=0;exitPerimeter=0;dashed=1;dashPattern=8 8;" edge="1" parent="1">
          <mxGeometry relative="1" as="geometry">
            <mxPoint x="71.38" y="1722" as="sourcePoint" />
            <mxPoint x="71.38" y="1752" as="targetPoint" />
          </mxGeometry>
        </mxCell>
        <mxCell id="In79gU82OMaWVXC0pcwa-82" style="edgeStyle=orthogonalEdgeStyle;rounded=0;orthogonalLoop=1;jettySize=auto;html=1;exitX=0.052;exitY=1;exitDx=0;exitDy=0;entryX=0.206;entryY=0.055;entryDx=0;entryDy=0;entryPerimeter=0;exitPerimeter=0;" edge="1" parent="1">
          <mxGeometry relative="1" as="geometry">
            <mxPoint x="128.88" y="1723" as="sourcePoint" />
            <mxPoint x="128.88" y="1753" as="targetPoint" />
          </mxGeometry>
        </mxCell>
        <mxCell id="In79gU82OMaWVXC0pcwa-83" style="edgeStyle=orthogonalEdgeStyle;rounded=0;orthogonalLoop=1;jettySize=auto;html=1;exitX=0.052;exitY=1;exitDx=0;exitDy=0;entryX=0.206;entryY=0.055;entryDx=0;entryDy=0;entryPerimeter=0;exitPerimeter=0;dashed=1;dashPattern=8 8;" edge="1" parent="1">
          <mxGeometry relative="1" as="geometry">
            <mxPoint x="153" y="1723" as="sourcePoint" />
            <mxPoint x="153" y="1753" as="targetPoint" />
          </mxGeometry>
        </mxCell>
        <mxCell id="In79gU82OMaWVXC0pcwa-85" value="&lt;div&gt;&lt;font style=&quot;font-size: 8px;&quot;&gt;GameSync&lt;/font&gt;&lt;/div&gt;&lt;div&gt;&lt;font style=&quot;font-size: 8px;&quot;&gt;Worker&lt;/font&gt;&lt;/div&gt;" style="rounded=0;whiteSpace=wrap;html=1;labelBackgroundColor=none;fillColor=#182E3E;strokeColor=#FFFFFF;fontColor=#FFFFFF;" vertex="1" parent="1">
          <mxGeometry x="1181" y="799" width="58" height="30" as="geometry" />
        </mxCell>
        <mxCell id="In79gU82OMaWVXC0pcwa-86" value="&lt;div&gt;&lt;font style=&quot;font-size: 8px;&quot;&gt;ItemSync&lt;/font&gt;&lt;/div&gt;&lt;div&gt;&lt;font style=&quot;font-size: 8px;&quot;&gt;Worker&lt;/font&gt;&lt;/div&gt;" style="rounded=0;whiteSpace=wrap;html=1;labelBackgroundColor=none;fillColor=#182E3E;strokeColor=#FFFFFF;fontColor=#FFFFFF;" vertex="1" parent="1">
          <mxGeometry x="1262" y="799" width="58" height="30" as="geometry" />
        </mxCell>
        <mxCell id="In79gU82OMaWVXC0pcwa-87" value="&lt;div&gt;&lt;font style=&quot;font-size: 8px;&quot;&gt;UserSync&lt;/font&gt;&lt;/div&gt;&lt;div&gt;&lt;font style=&quot;font-size: 8px;&quot;&gt;Worker&lt;/font&gt;&lt;/div&gt;" style="rounded=0;whiteSpace=wrap;html=1;labelBackgroundColor=none;fillColor=#182E3E;strokeColor=#FFFFFF;fontColor=#FFFFFF;" vertex="1" parent="1">
          <mxGeometry x="1337" y="799" width="58" height="30" as="geometry" />
        </mxCell>
        <mxCell id="In79gU82OMaWVXC0pcwa-89" style="edgeStyle=orthogonalEdgeStyle;rounded=0;orthogonalLoop=1;jettySize=auto;html=1;exitX=0.5;exitY=1;exitDx=0;exitDy=0;entryX=0.523;entryY=0.014;entryDx=0;entryDy=0;entryPerimeter=0;dashed=1;dashPattern=8 8;" edge="1" parent="1" source="In79gU82OMaWVXC0pcwa-85" target="oB9wCm33StctVlyddSk8-58">
          <mxGeometry relative="1" as="geometry" />
        </mxCell>
        <mxCell id="In79gU82OMaWVXC0pcwa-90" style="edgeStyle=orthogonalEdgeStyle;rounded=0;orthogonalLoop=1;jettySize=auto;html=1;exitX=0.5;exitY=1;exitDx=0;exitDy=0;entryX=0.523;entryY=0.014;entryDx=0;entryDy=0;entryPerimeter=0;dashed=1;dashPattern=8 8;" edge="1" parent="1">
          <mxGeometry relative="1" as="geometry">
            <mxPoint x="1290.94" y="829" as="sourcePoint" />
            <mxPoint x="1290.94" y="848" as="targetPoint" />
          </mxGeometry>
        </mxCell>
        <mxCell id="In79gU82OMaWVXC0pcwa-92" value="" style="shape=cylinder3;whiteSpace=wrap;html=1;boundedLbl=1;backgroundOutline=1;size=15;labelBackgroundColor=none;fillColor=#182E3E;strokeColor=#FFFFFF;fontColor=#FFFFFF;" vertex="1" parent="1">
          <mxGeometry x="1341" y="847" width="50" height="70" as="geometry" />
        </mxCell>
        <mxCell id="In79gU82OMaWVXC0pcwa-93" value="&lt;div&gt;&lt;font style=&quot;font-size: 8px;&quot;&gt;User&amp;nbsp;&lt;/font&gt;&lt;/div&gt;&lt;div&gt;&lt;font style=&quot;font-size: 8px;&quot;&gt;Search&lt;/font&gt;&lt;/div&gt;" style="text;html=1;align=center;verticalAlign=middle;whiteSpace=wrap;rounded=0;labelBackgroundColor=none;fontColor=#FFFFFF;" vertex="1" parent="1">
          <mxGeometry x="1336" y="877" width="60" height="30" as="geometry" />
        </mxCell>
        <mxCell id="In79gU82OMaWVXC0pcwa-96" value="&lt;div&gt;&lt;font style=&quot;font-size: 8px;&quot;&gt;Service&lt;/font&gt;&lt;/div&gt;" style="rounded=0;whiteSpace=wrap;html=1;labelBackgroundColor=none;fillColor=#182E3E;strokeColor=#FFFFFF;fontColor=#FFFFFF;" vertex="1" parent="1">
          <mxGeometry x="1198.5" y="940" width="183" height="30" as="geometry" />
        </mxCell>
        <mxCell id="In79gU82OMaWVXC0pcwa-101" style="edgeStyle=orthogonalEdgeStyle;rounded=0;orthogonalLoop=1;jettySize=auto;html=1;exitX=0.057;exitY=0.006;exitDx=0;exitDy=0;entryX=0.5;entryY=1;entryDx=0;entryDy=0;entryPerimeter=0;exitPerimeter=0;" edge="1" parent="1" source="In79gU82OMaWVXC0pcwa-96" target="oB9wCm33StctVlyddSk8-58">
          <mxGeometry relative="1" as="geometry" />
        </mxCell>
        <mxCell id="In79gU82OMaWVXC0pcwa-102" style="edgeStyle=orthogonalEdgeStyle;rounded=0;orthogonalLoop=1;jettySize=auto;html=1;exitX=0.057;exitY=0.006;exitDx=0;exitDy=0;entryX=0.5;entryY=1;entryDx=0;entryDy=0;entryPerimeter=0;exitPerimeter=0;" edge="1" parent="1">
          <mxGeometry relative="1" as="geometry">
            <mxPoint x="1290.92" y="941" as="sourcePoint" />
            <mxPoint x="1290.92" y="918" as="targetPoint" />
          </mxGeometry>
        </mxCell>
        <mxCell id="In79gU82OMaWVXC0pcwa-103" style="edgeStyle=orthogonalEdgeStyle;rounded=0;orthogonalLoop=1;jettySize=auto;html=1;exitX=0.057;exitY=0.006;exitDx=0;exitDy=0;entryX=0.5;entryY=1;entryDx=0;entryDy=0;entryPerimeter=0;exitPerimeter=0;" edge="1" parent="1">
          <mxGeometry relative="1" as="geometry">
            <mxPoint x="1365.92" y="940" as="sourcePoint" />
            <mxPoint x="1365.92" y="917" as="targetPoint" />
          </mxGeometry>
        </mxCell>
        <mxCell id="In79gU82OMaWVXC0pcwa-91" style="edgeStyle=orthogonalEdgeStyle;rounded=0;orthogonalLoop=1;jettySize=auto;html=1;exitX=0.5;exitY=1;exitDx=0;exitDy=0;entryX=0.523;entryY=0.014;entryDx=0;entryDy=0;entryPerimeter=0;dashed=1;dashPattern=8 8;" edge="1" parent="1">
          <mxGeometry relative="1" as="geometry">
            <mxPoint x="1364.94" y="829" as="sourcePoint" />
            <mxPoint x="1364.94" y="848" as="targetPoint" />
          </mxGeometry>
        </mxCell>
        <mxCell id="In79gU82OMaWVXC0pcwa-104" style="edgeStyle=orthogonalEdgeStyle;rounded=0;orthogonalLoop=1;jettySize=auto;html=1;exitX=0.5;exitY=0;exitDx=0;exitDy=0;dashed=1;dashPattern=8 8;" edge="1" parent="1" source="In79gU82OMaWVXC0pcwa-85" target="In79gU82OMaWVXC0pcwa-38">
          <mxGeometry relative="1" as="geometry">
            <Array as="points">
              <mxPoint x="1210" y="750" />
              <mxPoint x="990" y="750" />
            </Array>
          </mxGeometry>
        </mxCell>
        <mxCell id="In79gU82OMaWVXC0pcwa-112" value="&lt;div&gt;READ:&lt;br&gt;game update&lt;/div&gt;" style="edgeLabel;html=1;align=center;verticalAlign=middle;resizable=0;points=[];" vertex="1" connectable="0" parent="In79gU82OMaWVXC0pcwa-104">
          <mxGeometry x="-0.3442" y="2" relative="1" as="geometry">
            <mxPoint as="offset" />
          </mxGeometry>
        </mxCell>
        <mxCell id="In79gU82OMaWVXC0pcwa-106" style="edgeStyle=orthogonalEdgeStyle;rounded=0;orthogonalLoop=1;jettySize=auto;html=1;exitX=0.5;exitY=0;exitDx=0;exitDy=0;entryX=0.851;entryY=0.013;entryDx=0;entryDy=0;entryPerimeter=0;dashed=1;dashPattern=8 8;" edge="1" parent="1" source="In79gU82OMaWVXC0pcwa-86" target="In79gU82OMaWVXC0pcwa-38">
          <mxGeometry relative="1" as="geometry">
            <Array as="points">
              <mxPoint x="1291" y="710" />
              <mxPoint x="968" y="710" />
            </Array>
          </mxGeometry>
        </mxCell>
        <mxCell id="In79gU82OMaWVXC0pcwa-134" value="READ:&lt;br&gt;item update" style="edgeLabel;html=1;align=center;verticalAlign=middle;resizable=0;points=[];" vertex="1" connectable="0" parent="In79gU82OMaWVXC0pcwa-106">
          <mxGeometry x="-0.3232" y="-1" relative="1" as="geometry">
            <mxPoint as="offset" />
          </mxGeometry>
        </mxCell>
        <mxCell id="In79gU82OMaWVXC0pcwa-107" style="edgeStyle=orthogonalEdgeStyle;rounded=0;orthogonalLoop=1;jettySize=auto;html=1;exitX=0.5;exitY=0;exitDx=0;exitDy=0;entryX=0.745;entryY=-0.015;entryDx=0;entryDy=0;entryPerimeter=0;dashed=1;dashPattern=8 8;" edge="1" parent="1" source="In79gU82OMaWVXC0pcwa-87" target="In79gU82OMaWVXC0pcwa-38">
          <mxGeometry relative="1" as="geometry">
            <Array as="points">
              <mxPoint x="1366" y="670" />
              <mxPoint x="939" y="670" />
            </Array>
          </mxGeometry>
        </mxCell>
        <mxCell id="In79gU82OMaWVXC0pcwa-136" value="&lt;div&gt;READ:&lt;/div&gt;&lt;div&gt;user update&lt;/div&gt;" style="edgeLabel;html=1;align=center;verticalAlign=middle;resizable=0;points=[];" vertex="1" connectable="0" parent="In79gU82OMaWVXC0pcwa-107">
          <mxGeometry x="-0.2399" relative="1" as="geometry">
            <mxPoint as="offset" />
          </mxGeometry>
        </mxCell>
        <mxCell id="In79gU82OMaWVXC0pcwa-121" value="Notification Service" style="text;html=1;align=center;verticalAlign=middle;whiteSpace=wrap;rounded=0;labelBackgroundColor=none;fontColor=#FFFFFF;" vertex="1" parent="1">
          <mxGeometry x="1221.5" y="1070" width="160" height="30" as="geometry" />
        </mxCell>
        <mxCell id="In79gU82OMaWVXC0pcwa-122" value="&lt;div&gt;&lt;font style=&quot;font-size: 8px;&quot;&gt;worker&lt;/font&gt;&lt;/div&gt;" style="rounded=0;whiteSpace=wrap;html=1;labelBackgroundColor=none;fillColor=#182E3E;strokeColor=#FFFFFF;fontColor=#FFFFFF;" vertex="1" parent="1">
          <mxGeometry x="1184" y="1110" width="58" height="30" as="geometry" />
        </mxCell>
        <mxCell id="In79gU82OMaWVXC0pcwa-126" style="edgeStyle=orthogonalEdgeStyle;rounded=0;orthogonalLoop=1;jettySize=auto;html=1;entryX=1;entryY=0.5;entryDx=0;entryDy=0;entryPerimeter=0;dashed=1;dashPattern=8 8;" edge="1" parent="1" source="In79gU82OMaWVXC0pcwa-122" target="In79gU82OMaWVXC0pcwa-38">
          <mxGeometry relative="1" as="geometry" />
        </mxCell>
        <mxCell id="In79gU82OMaWVXC0pcwa-127" value="READ:&lt;br&gt;notify" style="edgeLabel;html=1;align=center;verticalAlign=middle;resizable=0;points=[];" vertex="1" connectable="0" parent="In79gU82OMaWVXC0pcwa-126">
          <mxGeometry x="-0.0123" relative="1" as="geometry">
            <mxPoint as="offset" />
          </mxGeometry>
        </mxCell>
        <mxCell id="In79gU82OMaWVXC0pcwa-131" style="edgeStyle=orthogonalEdgeStyle;rounded=0;orthogonalLoop=1;jettySize=auto;html=1;exitX=1;exitY=0.5;exitDx=0;exitDy=0;dashed=1;dashPattern=8 8;" edge="1" parent="1" source="oB9wCm33StctVlyddSk8-103">
          <mxGeometry relative="1" as="geometry">
            <mxPoint x="850" y="1100" as="targetPoint" />
          </mxGeometry>
        </mxCell>
        <mxCell id="In79gU82OMaWVXC0pcwa-132" value="WRITE:&lt;br&gt;notify" style="edgeLabel;html=1;align=center;verticalAlign=middle;resizable=0;points=[];" vertex="1" connectable="0" parent="In79gU82OMaWVXC0pcwa-131">
          <mxGeometry x="0.4747" y="-2" relative="1" as="geometry">
            <mxPoint y="-1" as="offset" />
          </mxGeometry>
        </mxCell>
        <mxCell id="In79gU82OMaWVXC0pcwa-140" value="&lt;div&gt;&lt;font style=&quot;font-size: 8px;&quot;&gt;GameWorker&lt;/font&gt;&lt;/div&gt;" style="rounded=0;whiteSpace=wrap;html=1;labelBackgroundColor=none;fillColor=#182E3E;strokeColor=#FFFFFF;fontColor=#FFFFFF;" vertex="1" parent="1">
          <mxGeometry x="241" y="710" width="80" height="30" as="geometry" />
        </mxCell>
        <mxCell id="In79gU82OMaWVXC0pcwa-142" value="&lt;div&gt;&lt;font style=&quot;font-size: 8px;&quot;&gt;UserGameWorker&lt;/font&gt;&lt;/div&gt;" style="rounded=0;whiteSpace=wrap;html=1;labelBackgroundColor=none;fillColor=#182E3E;strokeColor=#FFFFFF;fontColor=#FFFFFF;" vertex="1" parent="1">
          <mxGeometry x="241" y="670" width="80" height="30" as="geometry" />
        </mxCell>
        <mxCell id="In79gU82OMaWVXC0pcwa-143" value="&lt;div&gt;&lt;font style=&quot;font-size: 8px;&quot;&gt;Service&lt;/font&gt;&lt;/div&gt;" style="rounded=0;whiteSpace=wrap;html=1;labelBackgroundColor=none;fillColor=#182E3E;strokeColor=#FFFFFF;fontColor=#FFFFFF;" vertex="1" parent="1">
          <mxGeometry x="30" y="947" width="280" height="30" as="geometry" />
        </mxCell>
        <mxCell id="In79gU82OMaWVXC0pcwa-148" style="edgeStyle=orthogonalEdgeStyle;rounded=0;orthogonalLoop=1;jettySize=auto;html=1;entryX=0.107;entryY=0;entryDx=0;entryDy=0;entryPerimeter=0;dashed=1;dashPattern=8 8;" edge="1" parent="1" source="In79gU82OMaWVXC0pcwa-142" target="In79gU82OMaWVXC0pcwa-38">
          <mxGeometry relative="1" as="geometry" />
        </mxCell>
        <mxCell id="In79gU82OMaWVXC0pcwa-149" value="&lt;div&gt;READ:&lt;/div&gt;&lt;div&gt;usergame update&lt;/div&gt;" style="edgeLabel;html=1;align=center;verticalAlign=middle;resizable=0;points=[];" vertex="1" connectable="0" parent="In79gU82OMaWVXC0pcwa-148">
          <mxGeometry x="-0.3502" relative="1" as="geometry">
            <mxPoint as="offset" />
          </mxGeometry>
        </mxCell>
        <mxCell id="In79gU82OMaWVXC0pcwa-150" style="edgeStyle=orthogonalEdgeStyle;rounded=0;orthogonalLoop=1;jettySize=auto;html=1;entryX=0.244;entryY=0.014;entryDx=0;entryDy=0;entryPerimeter=0;dashed=1;dashPattern=8 8;" edge="1" parent="1" source="In79gU82OMaWVXC0pcwa-140" target="In79gU82OMaWVXC0pcwa-38">
          <mxGeometry relative="1" as="geometry">
            <Array as="points">
              <mxPoint x="798" y="720" />
            </Array>
          </mxGeometry>
        </mxCell>
        <mxCell id="In79gU82OMaWVXC0pcwa-151" value="READ:&lt;br&gt;&lt;div&gt;reviewed&lt;/div&gt;" style="edgeLabel;html=1;align=center;verticalAlign=middle;resizable=0;points=[];" vertex="1" connectable="0" parent="In79gU82OMaWVXC0pcwa-150">
          <mxGeometry x="-0.3255" y="-1" relative="1" as="geometry">
            <mxPoint as="offset" />
          </mxGeometry>
        </mxCell>
        <mxCell id="In79gU82OMaWVXC0pcwa-153" value="&lt;div&gt;&lt;font style=&quot;font-size: 8px;&quot;&gt;Review&lt;/font&gt;&lt;/div&gt;&lt;div&gt;&lt;font style=&quot;font-size: 8px;&quot;&gt;Microservice&lt;/font&gt;&lt;/div&gt;" style="rounded=0;whiteSpace=wrap;html=1;labelBackgroundColor=none;fillColor=#182E3E;strokeColor=#FFFFFF;fontColor=#FFFFFF;" vertex="1" parent="1">
          <mxGeometry x="241" y="805" width="80" height="30" as="geometry" />
        </mxCell>
        <mxCell id="In79gU82OMaWVXC0pcwa-156" style="edgeStyle=orthogonalEdgeStyle;rounded=0;orthogonalLoop=1;jettySize=auto;html=1;entryX=0.5;entryY=0;entryDx=0;entryDy=0;entryPerimeter=0;dashed=1;dashPattern=8 8;" edge="1" parent="1" source="In79gU82OMaWVXC0pcwa-153" target="oB9wCm33StctVlyddSk8-207">
          <mxGeometry relative="1" as="geometry" />
        </mxCell>
        <mxCell id="In79gU82OMaWVXC0pcwa-159" style="edgeStyle=orthogonalEdgeStyle;rounded=0;orthogonalLoop=1;jettySize=auto;html=1;exitX=0.65;exitY=0.03;exitDx=0;exitDy=0;entryX=0.5;entryY=1;entryDx=0;entryDy=0;entryPerimeter=0;exitPerimeter=0;" edge="1" parent="1">
          <mxGeometry relative="1" as="geometry">
            <mxPoint x="279.93" y="948" as="sourcePoint" />
            <mxPoint x="279.93" y="930" as="targetPoint" />
          </mxGeometry>
        </mxCell>
        <mxCell id="In79gU82OMaWVXC0pcwa-160" style="edgeStyle=orthogonalEdgeStyle;rounded=0;orthogonalLoop=1;jettySize=auto;html=1;exitX=0.65;exitY=0.03;exitDx=0;exitDy=0;entryX=0.5;entryY=1;entryDx=0;entryDy=0;entryPerimeter=0;exitPerimeter=0;" edge="1" parent="1">
          <mxGeometry relative="1" as="geometry">
            <mxPoint x="133.93" y="948" as="sourcePoint" />
            <mxPoint x="133.93" y="930" as="targetPoint" />
          </mxGeometry>
        </mxCell>
        <mxCell id="In79gU82OMaWVXC0pcwa-162" value="&lt;div&gt;&lt;font style=&quot;font-size: 8px;&quot;&gt;Download&lt;/font&gt;&lt;/div&gt;&lt;div&gt;&lt;font style=&quot;font-size: 8px;&quot;&gt;Microservice&lt;/font&gt;&lt;/div&gt;" style="rounded=0;whiteSpace=wrap;html=1;labelBackgroundColor=none;fillColor=#182E3E;strokeColor=#FFFFFF;fontColor=#FFFFFF;" vertex="1" parent="1">
          <mxGeometry x="46" y="700" width="80" height="30" as="geometry" />
        </mxCell>
        <mxCell id="In79gU82OMaWVXC0pcwa-167" style="edgeStyle=orthogonalEdgeStyle;rounded=0;orthogonalLoop=1;jettySize=auto;html=1;entryX=0.5;entryY=0;entryDx=0;entryDy=0;entryPerimeter=0;exitX=0;exitY=0.5;exitDx=0;exitDy=0;dashed=1;dashPattern=8 8;" edge="1" parent="1" source="In79gU82OMaWVXC0pcwa-142" target="oB9wCm33StctVlyddSk8-74">
          <mxGeometry relative="1" as="geometry">
            <Array as="points">
              <mxPoint x="170" y="685" />
              <mxPoint x="170" y="810" />
              <mxPoint x="134" y="810" />
            </Array>
          </mxGeometry>
        </mxCell>
        <mxCell id="In79gU82OMaWVXC0pcwa-168" style="edgeStyle=orthogonalEdgeStyle;rounded=0;orthogonalLoop=1;jettySize=auto;html=1;entryX=0.5;entryY=0;entryDx=0;entryDy=0;entryPerimeter=0;dashed=1;dashPattern=8 8;" edge="1" parent="1" source="In79gU82OMaWVXC0pcwa-140" target="oB9wCm33StctVlyddSk8-34">
          <mxGeometry relative="1" as="geometry" />
        </mxCell>
        <mxCell id="In79gU82OMaWVXC0pcwa-175" style="edgeStyle=orthogonalEdgeStyle;rounded=0;orthogonalLoop=1;jettySize=auto;html=1;entryX=0.01;entryY=0.253;entryDx=0;entryDy=0;entryPerimeter=0;dashed=1;dashPattern=8 8;" edge="1" parent="1" source="In79gU82OMaWVXC0pcwa-153" target="In79gU82OMaWVXC0pcwa-38">
          <mxGeometry relative="1" as="geometry">
            <Array as="points">
              <mxPoint x="526" y="820" />
              <mxPoint x="526" y="1000" />
              <mxPoint x="733" y="1000" />
            </Array>
          </mxGeometry>
        </mxCell>
        <mxCell id="In79gU82OMaWVXC0pcwa-176" value="&lt;div&gt;WRITE:&lt;/div&gt;&lt;div&gt;reviewed&lt;/div&gt;" style="edgeLabel;html=1;align=center;verticalAlign=middle;resizable=0;points=[];" vertex="1" connectable="0" parent="In79gU82OMaWVXC0pcwa-175">
          <mxGeometry x="-0.2349" y="-1" relative="1" as="geometry">
            <mxPoint y="65" as="offset" />
          </mxGeometry>
        </mxCell>
        <mxCell id="In79gU82OMaWVXC0pcwa-177" style="edgeStyle=orthogonalEdgeStyle;rounded=0;orthogonalLoop=1;jettySize=auto;html=1;entryX=0.875;entryY=0.5;entryDx=0;entryDy=0;entryPerimeter=0;" edge="1" parent="1" source="In79gU82OMaWVXC0pcwa-162" target="oB9wCm33StctVlyddSk8-167">
          <mxGeometry relative="1" as="geometry" />
        </mxCell>
        <mxCell id="In79gU82OMaWVXC0pcwa-178" style="edgeStyle=orthogonalEdgeStyle;rounded=0;orthogonalLoop=1;jettySize=auto;html=1;exitX=0.65;exitY=0.03;exitDx=0;exitDy=0;entryX=0.5;entryY=1;entryDx=0;entryDy=0;entryPerimeter=0;exitPerimeter=0;" edge="1" parent="1">
          <mxGeometry relative="1" as="geometry">
            <mxPoint x="59.860000000000014" y="948" as="sourcePoint" />
            <mxPoint x="59.860000000000014" y="930" as="targetPoint" />
          </mxGeometry>
        </mxCell>
        <mxCell id="In79gU82OMaWVXC0pcwa-179" style="edgeStyle=orthogonalEdgeStyle;rounded=0;orthogonalLoop=1;jettySize=auto;html=1;exitX=0.65;exitY=0.03;exitDx=0;exitDy=0;entryX=0.5;entryY=1;entryDx=0;entryDy=0;entryPerimeter=0;exitPerimeter=0;" edge="1" parent="1">
          <mxGeometry relative="1" as="geometry">
            <mxPoint x="209" y="948" as="sourcePoint" />
            <mxPoint x="209" y="930" as="targetPoint" />
          </mxGeometry>
        </mxCell>
        <mxCell id="In79gU82OMaWVXC0pcwa-180" value="&lt;div&gt;&lt;font style=&quot;font-size: 8px;&quot;&gt;GameAdmin&lt;/font&gt;&lt;/div&gt;&lt;div&gt;&lt;font style=&quot;font-size: 8px;&quot;&gt;Microservice&lt;/font&gt;&lt;/div&gt;" style="rounded=0;whiteSpace=wrap;html=1;labelBackgroundColor=none;fillColor=#182E3E;strokeColor=#FFFFFF;fontColor=#FFFFFF;" vertex="1" parent="1">
          <mxGeometry x="46" y="750" width="80" height="30" as="geometry" />
        </mxCell>
        <mxCell id="In79gU82OMaWVXC0pcwa-181" style="edgeStyle=orthogonalEdgeStyle;rounded=0;orthogonalLoop=1;jettySize=auto;html=1;entryX=0.5;entryY=0;entryDx=0;entryDy=0;entryPerimeter=0;dashed=1;dashPattern=8 8;" edge="1" parent="1" source="In79gU82OMaWVXC0pcwa-180" target="oB9wCm33StctVlyddSk8-20">
          <mxGeometry relative="1" as="geometry" />
        </mxCell>
        <mxCell id="In79gU82OMaWVXC0pcwa-183" style="edgeStyle=orthogonalEdgeStyle;rounded=0;orthogonalLoop=1;jettySize=auto;html=1;entryX=0.03;entryY=0.176;entryDx=0;entryDy=0;entryPerimeter=0;dashed=1;dashPattern=8 8;" edge="1" parent="1" source="In79gU82OMaWVXC0pcwa-180" target="In79gU82OMaWVXC0pcwa-38">
          <mxGeometry relative="1" as="geometry" />
        </mxCell>
        <mxCell id="In79gU82OMaWVXC0pcwa-184" value="&lt;div&gt;WRITE:&lt;/div&gt;&lt;div&gt;game added&lt;/div&gt;&lt;div&gt;game update&lt;/div&gt;&lt;div&gt;achievement added&lt;/div&gt;" style="edgeLabel;html=1;align=center;verticalAlign=middle;resizable=0;points=[];" vertex="1" connectable="0" parent="In79gU82OMaWVXC0pcwa-183">
          <mxGeometry x="-0.0091" relative="1" as="geometry">
            <mxPoint y="2" as="offset" />
          </mxGeometry>
        </mxCell>
        <mxCell id="In79gU82OMaWVXC0pcwa-185" style="edgeStyle=orthogonalEdgeStyle;rounded=0;orthogonalLoop=1;jettySize=auto;html=1;exitX=0.5;exitY=1;exitDx=0;exitDy=0;entryX=0.3;entryY=0.001;entryDx=0;entryDy=0;entryPerimeter=0;dashed=1;dashPattern=8 8;" edge="1" parent="1" source="In79gU82OMaWVXC0pcwa-180" target="oB9wCm33StctVlyddSk8-34">
          <mxGeometry relative="1" as="geometry">
            <Array as="points">
              <mxPoint x="86" y="800" />
              <mxPoint x="200" y="800" />
            </Array>
          </mxGeometry>
        </mxCell>
        <mxCell id="In79gU82OMaWVXC0pcwa-188" style="edgeStyle=orthogonalEdgeStyle;rounded=0;orthogonalLoop=1;jettySize=auto;html=1;entryX=0;entryY=0.5;entryDx=0;entryDy=0;" edge="1" parent="1" source="In79gU82OMaWVXC0pcwa-187" target="oB9wCm33StctVlyddSk8-14">
          <mxGeometry relative="1" as="geometry" />
        </mxCell>
        <mxCell id="In79gU82OMaWVXC0pcwa-197" style="edgeStyle=orthogonalEdgeStyle;rounded=0;orthogonalLoop=1;jettySize=auto;html=1;" edge="1" parent="1" source="In79gU82OMaWVXC0pcwa-187" target="In79gU82OMaWVXC0pcwa-13">
          <mxGeometry relative="1" as="geometry" />
        </mxCell>
        <mxCell id="In79gU82OMaWVXC0pcwa-187" value="L4 balancing" style="rounded=1;whiteSpace=wrap;html=1;labelBackgroundColor=none;fillColor=#182E3E;strokeColor=#FFFFFF;fontColor=#FFFFFF;" vertex="1" parent="1">
          <mxGeometry x="-610" y="1080" width="120" height="60" as="geometry" />
        </mxCell>
        <mxCell id="In79gU82OMaWVXC0pcwa-249" style="edgeStyle=orthogonalEdgeStyle;rounded=0;orthogonalLoop=1;jettySize=auto;html=1;entryX=0;entryY=0.75;entryDx=0;entryDy=0;exitX=0;exitY=0.5;exitDx=0;exitDy=0;fillColor=#60a917;strokeColor=#2D7600;" edge="1" parent="1" source="In79gU82OMaWVXC0pcwa-198" target="oB9wCm33StctVlyddSk8-76">
          <mxGeometry relative="1" as="geometry" />
        </mxCell>
        <mxCell id="In79gU82OMaWVXC0pcwa-198" value="" style="rounded=0;whiteSpace=wrap;html=1;labelBackgroundColor=none;fillColor=#182E3E;strokeColor=#FFFFFF;fontColor=#FFFFFF;" vertex="1" parent="1">
          <mxGeometry x="20" y="1870" width="249" height="186" as="geometry" />
        </mxCell>
        <mxCell id="In79gU82OMaWVXC0pcwa-199" value="Trade Service" style="text;html=1;align=center;verticalAlign=middle;whiteSpace=wrap;rounded=0;labelBackgroundColor=none;fontColor=#FFFFFF;" vertex="1" parent="1">
          <mxGeometry x="21" y="1870" width="249" height="30" as="geometry" />
        </mxCell>
        <mxCell id="oB9wCm33StctVlyddSk8-110" value="" style="shape=cylinder3;whiteSpace=wrap;html=1;boundedLbl=1;backgroundOutline=1;size=15;labelBackgroundColor=none;fillColor=#182E3E;strokeColor=#FFFFFF;fontColor=#FFFFFF;" parent="1" vertex="1">
          <mxGeometry x="61" y="1910" width="50" height="70" as="geometry" />
        </mxCell>
        <mxCell id="oB9wCm33StctVlyddSk8-111" value="&lt;div&gt;&lt;font style=&quot;font-size: 8px;&quot;&gt;Trade&lt;/font&gt;&lt;/div&gt;" style="text;html=1;align=center;verticalAlign=middle;whiteSpace=wrap;rounded=0;labelBackgroundColor=none;fontColor=#FFFFFF;" parent="1" vertex="1">
          <mxGeometry x="56" y="1940" width="60" height="30" as="geometry" />
        </mxCell>
        <mxCell id="In79gU82OMaWVXC0pcwa-200" value="&lt;div&gt;&lt;font style=&quot;font-size: 8px;&quot;&gt;Service&lt;/font&gt;&lt;/div&gt;" style="rounded=0;whiteSpace=wrap;html=1;labelBackgroundColor=none;fillColor=#182E3E;strokeColor=#FFFFFF;fontColor=#FFFFFF;" vertex="1" parent="1">
          <mxGeometry x="32" y="2010" width="114" height="30" as="geometry" />
        </mxCell>
        <mxCell id="In79gU82OMaWVXC0pcwa-201" style="edgeStyle=orthogonalEdgeStyle;rounded=0;orthogonalLoop=1;jettySize=auto;html=1;entryX=0.2;entryY=0.956;entryDx=0;entryDy=0;entryPerimeter=0;dashed=1;dashPattern=8 8;" edge="1" parent="1" target="oB9wCm33StctVlyddSk8-110">
          <mxGeometry relative="1" as="geometry">
            <mxPoint x="71.24999999999955" y="2010" as="sourcePoint" />
            <mxPoint x="70.75" y="1980.77" as="targetPoint" />
          </mxGeometry>
        </mxCell>
        <mxCell id="In79gU82OMaWVXC0pcwa-202" style="edgeStyle=orthogonalEdgeStyle;rounded=0;orthogonalLoop=1;jettySize=auto;html=1;entryX=0.2;entryY=0.956;entryDx=0;entryDy=0;entryPerimeter=0;" edge="1" parent="1">
          <mxGeometry relative="1" as="geometry">
            <mxPoint x="101.24999999999955" y="2010" as="sourcePoint" />
            <mxPoint x="101" y="1977" as="targetPoint" />
          </mxGeometry>
        </mxCell>
        <mxCell id="In79gU82OMaWVXC0pcwa-203" value="&lt;div&gt;&lt;font style=&quot;font-size: 8px;&quot;&gt;Orchestrator&lt;/font&gt;&lt;/div&gt;" style="rounded=0;whiteSpace=wrap;html=1;labelBackgroundColor=none;fillColor=#182E3E;strokeColor=#FFFFFF;fontColor=#FFFFFF;" vertex="1" parent="1">
          <mxGeometry x="176" y="1910" width="65" height="30" as="geometry" />
        </mxCell>
        <mxCell id="In79gU82OMaWVXC0pcwa-204" style="edgeStyle=orthogonalEdgeStyle;rounded=0;orthogonalLoop=1;jettySize=auto;html=1;dashed=1;dashPattern=8 8;" edge="1" parent="1" source="In79gU82OMaWVXC0pcwa-203">
          <mxGeometry relative="1" as="geometry">
            <mxPoint x="880" y="1100" as="targetPoint" />
          </mxGeometry>
        </mxCell>
        <mxCell id="In79gU82OMaWVXC0pcwa-205" value="&lt;div&gt;WRITE:&lt;/div&gt;&lt;div&gt;useritem update&lt;/div&gt;&lt;div&gt;notify&lt;/div&gt;" style="edgeLabel;html=1;align=center;verticalAlign=middle;resizable=0;points=[];" vertex="1" connectable="0" parent="In79gU82OMaWVXC0pcwa-204">
          <mxGeometry x="0.4617" y="-1" relative="1" as="geometry">
            <mxPoint as="offset" />
          </mxGeometry>
        </mxCell>
        <mxCell id="In79gU82OMaWVXC0pcwa-207" value="&lt;div&gt;&lt;font style=&quot;font-size: 8px;&quot;&gt;Service&lt;/font&gt;&lt;/div&gt;" style="rounded=0;whiteSpace=wrap;html=1;labelBackgroundColor=none;fillColor=#182E3E;strokeColor=#FFFFFF;fontColor=#FFFFFF;" vertex="1" parent="1">
          <mxGeometry x="36" y="600" width="144" height="30" as="geometry" />
        </mxCell>
        <mxCell id="In79gU82OMaWVXC0pcwa-218" style="edgeStyle=orthogonalEdgeStyle;rounded=0;orthogonalLoop=1;jettySize=auto;html=1;dashed=1;dashPattern=8 8;" edge="1" parent="1" source="In79gU82OMaWVXC0pcwa-209" target="oB9wCm33StctVlyddSk8-64">
          <mxGeometry relative="1" as="geometry" />
        </mxCell>
        <mxCell id="In79gU82OMaWVXC0pcwa-209" value="&lt;div&gt;&lt;font style=&quot;font-size: 8px;&quot;&gt;UserItemWorker&lt;/font&gt;&lt;/div&gt;" style="rounded=0;whiteSpace=wrap;html=1;labelBackgroundColor=none;fillColor=#182E3E;strokeColor=#FFFFFF;fontColor=#FFFFFF;" vertex="1" parent="1">
          <mxGeometry x="235" y="450" width="80" height="30" as="geometry" />
        </mxCell>
        <mxCell id="In79gU82OMaWVXC0pcwa-212" style="edgeStyle=orthogonalEdgeStyle;rounded=0;orthogonalLoop=1;jettySize=auto;html=1;entryX=0.317;entryY=0.008;entryDx=0;entryDy=0;entryPerimeter=0;dashed=1;dashPattern=8 8;" edge="1" parent="1" source="In79gU82OMaWVXC0pcwa-209" target="In79gU82OMaWVXC0pcwa-38">
          <mxGeometry relative="1" as="geometry" />
        </mxCell>
        <mxCell id="In79gU82OMaWVXC0pcwa-213" value="&lt;div&gt;READ:&lt;/div&gt;&lt;div&gt;useritem update&lt;/div&gt;" style="edgeLabel;html=1;align=center;verticalAlign=middle;resizable=0;points=[];" vertex="1" connectable="0" parent="In79gU82OMaWVXC0pcwa-212">
          <mxGeometry x="-0.4965" relative="1" as="geometry">
            <mxPoint as="offset" />
          </mxGeometry>
        </mxCell>
        <mxCell id="In79gU82OMaWVXC0pcwa-214" style="edgeStyle=orthogonalEdgeStyle;rounded=0;orthogonalLoop=1;jettySize=auto;html=1;exitX=0.25;exitY=0;exitDx=0;exitDy=0;entryX=0.552;entryY=0.993;entryDx=0;entryDy=0;entryPerimeter=0;" edge="1" parent="1">
          <mxGeometry relative="1" as="geometry">
            <mxPoint x="68" y="600.0000000000001" as="sourcePoint" />
            <mxPoint x="67.60000000000036" y="584.51" as="targetPoint" />
          </mxGeometry>
        </mxCell>
        <mxCell id="In79gU82OMaWVXC0pcwa-217" style="edgeStyle=orthogonalEdgeStyle;rounded=0;orthogonalLoop=1;jettySize=auto;html=1;exitX=0.25;exitY=0;exitDx=0;exitDy=0;entryX=0.552;entryY=0.993;entryDx=0;entryDy=0;entryPerimeter=0;" edge="1" parent="1">
          <mxGeometry relative="1" as="geometry">
            <mxPoint x="145.7" y="600.4900000000001" as="sourcePoint" />
            <mxPoint x="145.30000000000035" y="585" as="targetPoint" />
          </mxGeometry>
        </mxCell>
        <mxCell id="In79gU82OMaWVXC0pcwa-219" value="&lt;div&gt;&lt;font style=&quot;font-size: 8px;&quot;&gt;ItemAdmin&lt;/font&gt;&lt;/div&gt;&lt;div&gt;&lt;font style=&quot;font-size: 8px;&quot;&gt;Microservice&lt;/font&gt;&lt;/div&gt;" style="rounded=0;whiteSpace=wrap;html=1;labelBackgroundColor=none;fillColor=#182E3E;strokeColor=#FFFFFF;fontColor=#FFFFFF;" vertex="1" parent="1">
          <mxGeometry x="32" y="460" width="80" height="30" as="geometry" />
        </mxCell>
        <mxCell id="In79gU82OMaWVXC0pcwa-220" style="edgeStyle=orthogonalEdgeStyle;rounded=0;orthogonalLoop=1;jettySize=auto;html=1;entryX=0.575;entryY=0.032;entryDx=0;entryDy=0;entryPerimeter=0;dashed=1;dashPattern=8 8;" edge="1" parent="1" source="In79gU82OMaWVXC0pcwa-219" target="oB9wCm33StctVlyddSk8-28">
          <mxGeometry relative="1" as="geometry" />
        </mxCell>
        <mxCell id="In79gU82OMaWVXC0pcwa-222" style="edgeStyle=orthogonalEdgeStyle;rounded=0;orthogonalLoop=1;jettySize=auto;html=1;entryX=0.393;entryY=0;entryDx=0;entryDy=0;entryPerimeter=0;dashed=1;dashPattern=8 8;" edge="1" parent="1" source="In79gU82OMaWVXC0pcwa-219" target="In79gU82OMaWVXC0pcwa-38">
          <mxGeometry relative="1" as="geometry">
            <Array as="points">
              <mxPoint x="210" y="475" />
              <mxPoint x="210" y="530" />
              <mxPoint x="840" y="530" />
            </Array>
          </mxGeometry>
        </mxCell>
        <mxCell id="In79gU82OMaWVXC0pcwa-223" value="&lt;div&gt;WRITE:&lt;/div&gt;&lt;div&gt;item added&lt;/div&gt;&lt;div&gt;item update&lt;/div&gt;" style="edgeLabel;html=1;align=center;verticalAlign=middle;resizable=0;points=[];" vertex="1" connectable="0" parent="In79gU82OMaWVXC0pcwa-222">
          <mxGeometry x="-0.1115" relative="1" as="geometry">
            <mxPoint as="offset" />
          </mxGeometry>
        </mxCell>
        <mxCell id="In79gU82OMaWVXC0pcwa-224" value="&lt;div&gt;&lt;font style=&quot;font-size: 8px;&quot;&gt;Service&lt;/font&gt;&lt;/div&gt;" style="rounded=0;whiteSpace=wrap;html=1;labelBackgroundColor=none;fillColor=#182E3E;strokeColor=#FFFFFF;fontColor=#FFFFFF;" vertex="1" parent="1">
          <mxGeometry x="32" y="2260" width="168" height="30" as="geometry" />
        </mxCell>
        <mxCell id="In79gU82OMaWVXC0pcwa-247" style="edgeStyle=orthogonalEdgeStyle;rounded=0;orthogonalLoop=1;jettySize=auto;html=1;exitX=0;exitY=0.5;exitDx=0;exitDy=0;dashed=1;dashPattern=8 8;" edge="1" parent="1" source="In79gU82OMaWVXC0pcwa-228" target="In79gU82OMaWVXC0pcwa-229">
          <mxGeometry relative="1" as="geometry" />
        </mxCell>
        <mxCell id="In79gU82OMaWVXC0pcwa-228" value="&lt;div&gt;&lt;font style=&quot;font-size: 8px;&quot;&gt;Achievement&lt;/font&gt;&lt;/div&gt;&lt;div&gt;&lt;font style=&quot;font-size: 8px;&quot;&gt;worker&lt;/font&gt;&lt;/div&gt;" style="rounded=0;whiteSpace=wrap;html=1;labelBackgroundColor=none;fillColor=#182E3E;strokeColor=#FFFFFF;fontColor=#FFFFFF;" vertex="1" parent="1">
          <mxGeometry x="244.5" y="2100" width="80" height="30" as="geometry" />
        </mxCell>
        <mxCell id="In79gU82OMaWVXC0pcwa-229" value="" style="shape=cylinder3;whiteSpace=wrap;html=1;boundedLbl=1;backgroundOutline=1;size=15;labelBackgroundColor=none;fillColor=#182E3E;strokeColor=#FFFFFF;fontColor=#FFFFFF;" vertex="1" parent="1">
          <mxGeometry x="41" y="2158" width="50" height="70" as="geometry" />
        </mxCell>
        <mxCell id="In79gU82OMaWVXC0pcwa-230" value="&lt;div&gt;&lt;font style=&quot;font-size: 8px;&quot;&gt;User&lt;/font&gt;&lt;/div&gt;&lt;div&gt;&lt;font style=&quot;font-size: 8px;&quot;&gt;Achievement&lt;/font&gt;&lt;/div&gt;" style="text;html=1;align=center;verticalAlign=middle;whiteSpace=wrap;rounded=0;labelBackgroundColor=none;fontColor=#FFFFFF;" vertex="1" parent="1">
          <mxGeometry x="45" y="2185.5" width="42.5" height="30" as="geometry" />
        </mxCell>
        <mxCell id="In79gU82OMaWVXC0pcwa-231" value="" style="shape=cylinder3;whiteSpace=wrap;html=1;boundedLbl=1;backgroundOutline=1;size=15;labelBackgroundColor=none;fillColor=#182E3E;strokeColor=#FFFFFF;fontColor=#FFFFFF;" vertex="1" parent="1">
          <mxGeometry x="135.5" y="2158" width="50" height="70" as="geometry" />
        </mxCell>
        <mxCell id="In79gU82OMaWVXC0pcwa-232" value="&lt;div&gt;&lt;font style=&quot;font-size: 8px;&quot;&gt;Achievement&lt;/font&gt;&lt;/div&gt;" style="text;html=1;align=center;verticalAlign=middle;whiteSpace=wrap;rounded=0;labelBackgroundColor=none;fontColor=#FFFFFF;" vertex="1" parent="1">
          <mxGeometry x="130.5" y="2185.5" width="60" height="30" as="geometry" />
        </mxCell>
        <mxCell id="In79gU82OMaWVXC0pcwa-234" style="edgeStyle=orthogonalEdgeStyle;rounded=0;orthogonalLoop=1;jettySize=auto;html=1;entryX=0.5;entryY=1;entryDx=0;entryDy=0;entryPerimeter=0;" edge="1" parent="1" target="In79gU82OMaWVXC0pcwa-231">
          <mxGeometry relative="1" as="geometry">
            <mxPoint x="160" y="2260" as="sourcePoint" />
          </mxGeometry>
        </mxCell>
        <mxCell id="In79gU82OMaWVXC0pcwa-236" style="edgeStyle=orthogonalEdgeStyle;rounded=0;orthogonalLoop=1;jettySize=auto;html=1;" edge="1" parent="1">
          <mxGeometry relative="1" as="geometry">
            <mxPoint x="65.5" y="2260" as="sourcePoint" />
            <mxPoint x="66" y="2228" as="targetPoint" />
          </mxGeometry>
        </mxCell>
        <mxCell id="In79gU82OMaWVXC0pcwa-237" value="&lt;div&gt;&lt;font style=&quot;font-size: 8px;&quot;&gt;UserAchievement&lt;/font&gt;&lt;/div&gt;&lt;div&gt;&lt;font style=&quot;font-size: 8px;&quot;&gt;worker&lt;/font&gt;&lt;/div&gt;" style="rounded=0;whiteSpace=wrap;html=1;labelBackgroundColor=none;fillColor=#182E3E;strokeColor=#FFFFFF;fontColor=#FFFFFF;" vertex="1" parent="1">
          <mxGeometry x="245" y="2140" width="80" height="30" as="geometry" />
        </mxCell>
        <mxCell id="In79gU82OMaWVXC0pcwa-238" value="STEAMWORKS API" style="rounded=0;whiteSpace=wrap;html=1;labelBackgroundColor=none;fillColor=#182E3E;strokeColor=#FFFFFF;fontColor=#FFFFFF;" vertex="1" parent="1">
          <mxGeometry x="1170" y="1261.25" width="250" height="140" as="geometry" />
        </mxCell>
        <mxCell id="In79gU82OMaWVXC0pcwa-239" style="edgeStyle=orthogonalEdgeStyle;rounded=0;orthogonalLoop=1;jettySize=auto;html=1;entryX=1.003;entryY=0.734;entryDx=0;entryDy=0;entryPerimeter=0;dashed=1;dashPattern=8 8;" edge="1" parent="1" source="In79gU82OMaWVXC0pcwa-238" target="In79gU82OMaWVXC0pcwa-38">
          <mxGeometry relative="1" as="geometry">
            <Array as="points">
              <mxPoint x="1060" y="1331" />
              <mxPoint x="1060" y="1058" />
            </Array>
          </mxGeometry>
        </mxCell>
        <mxCell id="In79gU82OMaWVXC0pcwa-240" value="&lt;div&gt;WRITE:&lt;/div&gt;&lt;div&gt;achievement unlock&lt;/div&gt;&lt;div&gt;notify&lt;/div&gt;" style="edgeLabel;html=1;align=center;verticalAlign=middle;resizable=0;points=[];" vertex="1" connectable="0" parent="In79gU82OMaWVXC0pcwa-239">
          <mxGeometry x="-0.5094" y="-1" relative="1" as="geometry">
            <mxPoint as="offset" />
          </mxGeometry>
        </mxCell>
        <mxCell id="In79gU82OMaWVXC0pcwa-242" style="edgeStyle=orthogonalEdgeStyle;rounded=0;orthogonalLoop=1;jettySize=auto;html=1;entryX=0.737;entryY=1.004;entryDx=0;entryDy=0;entryPerimeter=0;dashed=1;dashPattern=8 8;" edge="1" parent="1" source="In79gU82OMaWVXC0pcwa-228" target="In79gU82OMaWVXC0pcwa-38">
          <mxGeometry relative="1" as="geometry" />
        </mxCell>
        <mxCell id="In79gU82OMaWVXC0pcwa-245" value="&lt;div&gt;READ:&lt;/div&gt;&lt;div&gt;game added&lt;/div&gt;" style="edgeLabel;html=1;align=center;verticalAlign=middle;resizable=0;points=[];" vertex="1" connectable="0" parent="In79gU82OMaWVXC0pcwa-242">
          <mxGeometry x="0.3712" y="2" relative="1" as="geometry">
            <mxPoint as="offset" />
          </mxGeometry>
        </mxCell>
        <mxCell id="In79gU82OMaWVXC0pcwa-243" style="edgeStyle=orthogonalEdgeStyle;rounded=0;orthogonalLoop=1;jettySize=auto;html=1;entryX=0.961;entryY=0.884;entryDx=0;entryDy=0;entryPerimeter=0;dashed=1;dashPattern=8 8;" edge="1" parent="1" source="In79gU82OMaWVXC0pcwa-237" target="In79gU82OMaWVXC0pcwa-38">
          <mxGeometry relative="1" as="geometry">
            <Array as="points">
              <mxPoint x="1000" y="2155" />
              <mxPoint x="1000" y="1090" />
              <mxPoint x="999" y="1090" />
            </Array>
          </mxGeometry>
        </mxCell>
        <mxCell id="In79gU82OMaWVXC0pcwa-246" value="&lt;div&gt;READ:&lt;/div&gt;&lt;div&gt;&lt;div&gt;achievement unlock&lt;/div&gt;&lt;/div&gt;" style="edgeLabel;html=1;align=center;verticalAlign=middle;resizable=0;points=[];" vertex="1" connectable="0" parent="In79gU82OMaWVXC0pcwa-243">
          <mxGeometry x="0.2718" y="1" relative="1" as="geometry">
            <mxPoint as="offset" />
          </mxGeometry>
        </mxCell>
        <mxCell id="In79gU82OMaWVXC0pcwa-248" style="edgeStyle=orthogonalEdgeStyle;rounded=0;orthogonalLoop=1;jettySize=auto;html=1;entryX=0.5;entryY=0;entryDx=0;entryDy=0;entryPerimeter=0;dashed=1;dashPattern=8 8;" edge="1" parent="1" source="In79gU82OMaWVXC0pcwa-237" target="In79gU82OMaWVXC0pcwa-231">
          <mxGeometry relative="1" as="geometry" />
        </mxCell>
        <mxCell id="In79gU82OMaWVXC0pcwa-250" style="edgeStyle=orthogonalEdgeStyle;rounded=0;orthogonalLoop=1;jettySize=auto;html=1;exitX=0;exitY=0.5;exitDx=0;exitDy=0;entryX=-0.003;entryY=0.643;entryDx=0;entryDy=0;entryPerimeter=0;fillColor=#60a917;strokeColor=#2D7600;" edge="1" parent="1" source="oB9wCm33StctVlyddSk8-36" target="oB9wCm33StctVlyddSk8-76">
          <mxGeometry relative="1" as="geometry">
            <Array as="points">
              <mxPoint x="-30" y="2190" />
              <mxPoint x="-30" y="1350" />
            </Array>
          </mxGeometry>
        </mxCell>
        <mxCell id="In79gU82OMaWVXC0pcwa-251" style="edgeStyle=orthogonalEdgeStyle;rounded=0;orthogonalLoop=1;jettySize=auto;html=1;entryX=-0.001;entryY=0.404;entryDx=0;entryDy=0;entryPerimeter=0;fillColor=#60a917;strokeColor=#2D7600;" edge="1" parent="1" source="oB9wCm33StctVlyddSk8-26" target="oB9wCm33StctVlyddSk8-76">
          <mxGeometry relative="1" as="geometry">
            <Array as="points">
              <mxPoint x="-10" y="535" />
              <mxPoint x="-10" y="1317" />
            </Array>
          </mxGeometry>
        </mxCell>
        <mxCell id="In79gU82OMaWVXC0pcwa-253" value="&lt;div&gt;&lt;font style=&quot;font-size: 8px;&quot;&gt;Service&lt;/font&gt;&lt;/div&gt;" style="rounded=0;whiteSpace=wrap;html=1;labelBackgroundColor=none;fillColor=#182E3E;strokeColor=#FFFFFF;fontColor=#FFFFFF;" vertex="1" parent="1">
          <mxGeometry x="49" y="340" width="144" height="30" as="geometry" />
        </mxCell>
        <mxCell id="In79gU82OMaWVXC0pcwa-254" style="edgeStyle=orthogonalEdgeStyle;rounded=0;orthogonalLoop=1;jettySize=auto;html=1;entryX=0.5;entryY=1;entryDx=0;entryDy=0;entryPerimeter=0;exitX=1;exitY=0.5;exitDx=0;exitDy=0;" edge="1" parent="1" source="In79gU82OMaWVXC0pcwa-253" target="oB9wCm33StctVlyddSk8-97">
          <mxGeometry relative="1" as="geometry">
            <mxPoint x="69" y="370" as="sourcePoint" />
          </mxGeometry>
        </mxCell>
        <mxCell id="In79gU82OMaWVXC0pcwa-256" value="&lt;div&gt;&lt;font style=&quot;font-size: 8px;&quot;&gt;Upload image&lt;/font&gt;&lt;/div&gt;&lt;div&gt;&lt;font style=&quot;font-size: 8px;&quot;&gt;Microservice&lt;/font&gt;&lt;/div&gt;" style="rounded=0;whiteSpace=wrap;html=1;labelBackgroundColor=none;fillColor=#182E3E;strokeColor=#FFFFFF;fontColor=#FFFFFF;" vertex="1" parent="1">
          <mxGeometry x="41.5" y="220" width="144" height="30" as="geometry" />
        </mxCell>
        <mxCell id="In79gU82OMaWVXC0pcwa-258" style="edgeStyle=orthogonalEdgeStyle;rounded=0;orthogonalLoop=1;jettySize=auto;html=1;entryX=0.5;entryY=0;entryDx=0;entryDy=0;entryPerimeter=0;dashed=1;dashPattern=8 8;" edge="1" parent="1" source="In79gU82OMaWVXC0pcwa-256" target="oB9wCm33StctVlyddSk8-97">
          <mxGeometry relative="1" as="geometry" />
        </mxCell>
        <mxCell id="In79gU82OMaWVXC0pcwa-262" style="edgeStyle=orthogonalEdgeStyle;rounded=0;orthogonalLoop=1;jettySize=auto;html=1;exitX=0;exitY=0.75;exitDx=0;exitDy=0;entryX=-0.003;entryY=0.145;entryDx=0;entryDy=0;entryPerimeter=0;fillColor=#60a917;strokeColor=#2D7600;" edge="1" parent="1" source="oB9wCm33StctVlyddSk8-99" target="oB9wCm33StctVlyddSk8-76">
          <mxGeometry relative="1" as="geometry">
            <Array as="points">
              <mxPoint x="10" y="352" />
              <mxPoint x="10" y="1280" />
            </Array>
          </mxGeometry>
        </mxCell>
        <mxCell id="In79gU82OMaWVXC0pcwa-263" style="edgeStyle=orthogonalEdgeStyle;rounded=0;orthogonalLoop=1;jettySize=auto;html=1;entryX=0.55;entryY=0.95;entryDx=0;entryDy=0;entryPerimeter=0;dashed=1;dashPattern=8 8;" edge="1" parent="1" source="In79gU82OMaWVXC0pcwa-180" target="oB9wCm33StctVlyddSk8-167">
          <mxGeometry relative="1" as="geometry">
            <Array as="points">
              <mxPoint x="-146" y="765" />
              <mxPoint x="-146" y="744" />
            </Array>
          </mxGeometry>
        </mxCell>
        <mxCell id="In79gU82OMaWVXC0pcwa-264" value="&lt;div&gt;S3&lt;/div&gt;&lt;div&gt;(screenshot)&lt;/div&gt;" style="ellipse;shape=cloud;whiteSpace=wrap;html=1;labelBackgroundColor=none;fillColor=#182E3E;strokeColor=#FFFFFF;fontColor=#FFFFFF;" vertex="1" parent="1">
          <mxGeometry x="-285" y="200" width="170" height="120" as="geometry" />
        </mxCell>
        <mxCell id="In79gU82OMaWVXC0pcwa-265" style="edgeStyle=orthogonalEdgeStyle;rounded=0;orthogonalLoop=1;jettySize=auto;html=1;entryX=0.9;entryY=0.292;entryDx=0;entryDy=0;entryPerimeter=0;dashed=1;dashPattern=8 8;" edge="1" parent="1" source="In79gU82OMaWVXC0pcwa-256" target="In79gU82OMaWVXC0pcwa-264">
          <mxGeometry relative="1" as="geometry" />
        </mxCell>
        <mxCell id="In79gU82OMaWVXC0pcwa-266" style="edgeStyle=orthogonalEdgeStyle;rounded=0;orthogonalLoop=1;jettySize=auto;html=1;entryX=0.958;entryY=0.629;entryDx=0;entryDy=0;entryPerimeter=0;" edge="1" parent="1" source="In79gU82OMaWVXC0pcwa-253" target="In79gU82OMaWVXC0pcwa-264">
          <mxGeometry relative="1" as="geometry">
            <Array as="points">
              <mxPoint x="121" y="335" />
              <mxPoint x="120" y="335" />
              <mxPoint x="120" y="276" />
            </Array>
          </mxGeometry>
        </mxCell>
      </root>
    </mxGraphModel>
  </diagram>
</mxfile>
